<?xml version="1.0" encoding="utf-8"?>
<!-- Generator: Adobe Illustrator 22.1.0, SVG Export Plug-In . SVG Version: 6.00 Build 0)  -->
<svg version="1.1" id="Layer_1" xmlns="http://www.w3.org/2000/svg" xmlns:xlink="http://www.w3.org/1999/xlink" x="0px" y="0px"
	 viewBox="0 0 34 389" style="enable-background:new 0 0 34 389;" xml:space="preserve">
<style type="text/css">
	.st0{fill:#FFFFFF;}
	.st1{opacity:0.62;fill-rule:evenodd;clip-rule:evenodd;fill:#868686;stroke:#868686;stroke-width:0.216;stroke-miterlimit:2.6131;}
	.st2{fill-rule:evenodd;clip-rule:evenodd;fill:#FFFFFF;}
	.st3{fill:#1D1D1B;}
	.st4{fill:#2DA343;}
	.st5{fill-rule:evenodd;clip-rule:evenodd;fill:#EE3524;}
	.st6{fill-rule:evenodd;clip-rule:evenodd;fill:#2DA343;}
	.st7{fill-rule:evenodd;clip-rule:evenodd;fill:#1D1D1B;}
	.st8{fill:#1D3A5C;}
	.st9{fill:#284E7D;}
	.st10{fill:#2C5689;}
	.st11{opacity:0.62;}
	.st12{fill-rule:evenodd;clip-rule:evenodd;fill:#868686;}
	.st13{fill:#868686;}
	.st14{fill:none;stroke:#FFFFFF;stroke-width:3;stroke-linecap:round;stroke-miterlimit:10;}
	.st15{opacity:0.8;fill:#FFFFFF;}
	.st16{fill:#D71016;}
	.st17{fill:#DC2B30;}
	.st18{fill:#333332;}
	.st19{clip-path:url(#SVGID_2_);fill:#FFFFFF;}
	.st20{clip-path:url(#SVGID_2_);}
	.st21{clip-path:url(#SVGID_10_);fill:#FFFFFF;}
	.st22{clip-path:url(#SVGID_10_);fill:#2AA737;}
	.st23{clip-path:url(#SVGID_12_);fill:#FFFFFF;}
	.st24{clip-path:url(#SVGID_12_);fill:#CD930B;}
	.st25{clip-path:url(#SVGID_14_);fill:none;stroke:#FFFFFF;stroke-width:1.5;stroke-miterlimit:10;}
	.st26{clip-path:url(#SVGID_16_);fill:#FFFFFF;}
	.st27{clip-path:url(#SVGID_18_);fill:none;stroke:#FFFFFF;stroke-width:2;stroke-miterlimit:10;}
	.st28{clip-path:url(#SVGID_20_);fill:#FFFFFF;}
	.st29{clip-path:url(#SVGID_22_);}
	.st30{clip-path:url(#SVGID_24_);}
	.st31{opacity:0.8;fill:#1D1D1B;}
	.st32{opacity:0.5;}
	.st33{clip-path:url(#SVGID_28_);}
	.st34{fill:none;}
	.st35{fill:none;stroke:#FFFFFF;stroke-width:0.3;}
	.st36{fill:#4FAA51;}
	.st37{fill:#EE3524;}
	.st38{fill:#F05332;}
	.st39{opacity:0.1;}
	.st40{fill:#12100B;}
	.st41{fill:#057DC1;}
	.st42{fill:#FAB933;}
	.st43{fill:#E53132;}
	.st44{fill:#5EB030;}
</style>
<g>
	<g>
		<g>
			<g>
				<g>
					<g>
						<path class="st0" d="M18,387.6c0,0.6,0.2,0.4,0.3,0.5C18.2,387.1,17.9,387.6,18,387.6z"/>
						<polygon class="st0" points="17.4,378.2 17.5,378.3 17.3,377 						"/>
						<path class="st0" d="M17.4,369.4c-0.4,0.8,0.1,3.2-0.1,4.8l-0.1,0.3l0.3,0.7C17.5,373.2,17.3,370.7,17.4,369.4z"/>
						<path class="st0" d="M18.3,364.7c-0.2,0.3-0.1-1-0.1,1.1c0-0.1,0-0.1,0-0.2C18.3,365.4,18.3,365.1,18.3,364.7z"/>
						<path class="st0" d="M18.3,365.6C18.3,366.5,18.5,365,18.3,365.6L18.3,365.6z"/>
						<path class="st0" d="M18.2,361.3l0.1,1.2c0.1-0.3,0.1-1.3,0.2-0.9C18.5,360.3,18.4,360.6,18.2,361.3z"/>
						<path class="st0" d="M17.9,360.2l0.1,0.6C18,360.7,18,360.5,17.9,360.2z"/>
						<path class="st0" d="M18.1,362.1l-0.1-1.3c-0.1,0.2-0.2,0.2,0,0.6C17.9,361.3,18,361.6,18.1,362.1z"/>
						<path class="st0" d="M18.1,362.9c-0.1,0.7-0.2,1.6-0.3,0.3C17.8,365.6,18.1,365.2,18.1,362.9z"/>
						<path class="st0" d="M17,368.9l-0.1,0.9l0.1,0.8C16.9,370.2,17.1,368.9,17,368.9z"/>
						<path class="st0" d="M18.5,353.7c-0.1-0.1-0.2,0.4-0.4,0.5l0.1,0.9C18.3,354.6,18.3,353.8,18.5,353.7z"/>
						<path class="st0" d="M18.1,354.2l-0.2-1.3C17.9,354.1,18,354.3,18.1,354.2z"/>
						<polygon class="st0" points="17.4,359.9 17.8,362.1 17.4,359.5 						"/>
						<polygon class="st0" points="18.5,348.6 18.7,349.3 18.4,348 						"/>
						<path class="st0" d="M18.4,345.1c0.2,0.6,0.3-0.8,0.4-0.2c0-0.9-0.2-1.7-0.3-2.4C18.6,343.3,18.6,344.1,18.4,345.1z"/>
						<path class="st0" d="M18.3,341.3c0,0.4,0.1,0.8,0.2,1.2C18.5,342.1,18.4,341.7,18.3,341.3z"/>
						<path class="st0" d="M18,350.6c0.1-0.1,0.2-0.3,0.3-1.1L18,350C18,350.2,18,350.4,18,350.6z"/>
						<path class="st0" d="M18,350L18,350c0-0.6,0-1,0-1.2C18,349,18,349.4,18,350z"/>
						<path class="st0" d="M18,350.7c0,0,0-0.1,0-0.1C18,350.6,18,350.6,18,350.7z"/>
						<path class="st0" d="M17.7,356.4c-0.1-0.8-0.3-2.4-0.5-0.8C17.3,356.1,17.5,355.2,17.7,356.4z"/>
						<path class="st0" d="M17.7,351.4l-0.1,1.4c0.1,0,0.2-0.3,0.2,0.1L17.7,351.4z"/>
						<polygon class="st0" points="17.6,350.7 17.7,351.4 17.7,350.8 						"/>
						<path class="st0" d="M18.1,343.8c-0.1-0.6-0.1-1.3-0.1-2.1c-0.1,0.8-0.1,1.7-0.1,2.5C17.9,344.3,18.1,344.7,18.1,343.8z"/>
						<path class="st0" d="M18,346.8c0,0,0-0.1,0-0.1C18,346.8,18,346.8,18,346.8z"/>
						<path class="st0" d="M17.9,334.2c0,0,0,0.1,0,0.1c0,0,0,0,0,0L17.9,334.2z"/>
						<path class="st0" d="M17.8,344.3c0,0.6,0,1,0.1,1.3c0-0.5,0-0.9,0-1.5C17.8,344.1,17.8,344.1,17.8,344.3z"/>
						<path class="st0" d="M18.2,339.2c-0.1,0.3-0.1,0.7-0.1,1.1C18.1,340,18.3,339.3,18.2,339.2z"/>
						<path class="st0" d="M18.1,346.5C18.1,346.5,18.1,346.5,18.1,346.5C18.1,346.4,18.1,346.4,18.1,346.5z"/>
						<path class="st0" d="M18.1,346.5c0-0.3-0.1-0.6-0.2-0.8c0,0.4,0,0.7,0.1,1C18,346.6,18,346.5,18.1,346.5z"/>
						<path class="st0" d="M16.3,331.9c0.2,0.1,0.5,1.7,0.2,3.1c0.2,1.4,1,0.5,1.4-0.7c-0.1,0-0.2,0-0.3-1.5
							c-0.1,0.5-0.3,3.1-0.5,1.9c-0.1-1.9,0.1-1.5,0.2-2.4c-0.3,0.8-0.4-2.4-0.9-2l0.2,1.6C16.5,332.1,16.4,331.5,16.3,331.9z"/>
						<path class="st0" d="M17.9,337l0,0.6c0-0.7,0.1-1.1,0.3-2c-0.1-1-0.2-1.2-0.3-1.2l0,2.9L17.9,337z"/>
						<path class="st0" d="M17.9,340.2c-0.3-0.5-0.4-1.9-0.6-1c0,1.7,0.2,1.2,0.3,2.2C17.5,338.7,17.7,342.2,17.9,340.2
							c0,0.6,0,1.1,0,1.5c0-0.5,0.1-1,0.1-1.4c0,0,0,0,0,0.1l0,0c0,0,0,0,0,0c0,0.1-0.1,0.2,0,0c0,0,0,0,0-0.1
							C18,340.3,17.9,340.3,17.9,340.2c0.1-0.8,0.1-0.1,0.1,0.1c0,0,0,0,0,0c0,0,0,0,0,0l-0.1-2.8C17.9,338.2,17.9,338.9,17.9,340.2
							z"/>
						<path class="st0" d="M16.6,354.1C16.6,354,16.7,354,16.6,354.1C16.6,353.8,16.6,353.7,16.6,354.1z"/>
						<path class="st0" d="M16.8,352.9c0,0.2,0.1,0.4,0.1,1c-0.1,0.6-0.1,0-0.2,0c0.1,0.4,0.2,1.4,0.3,0.1l0-0.2
							c0.1-1.1,0.4-2.5,0.4-2.3C17.2,351.9,17,352.2,16.8,352.9z"/>
						<path class="st0" d="M17.3,346.5l-0.1-2.3l-0.2,1.2l0.1-0.1C17,346.6,17.2,346.3,17.3,346.5z"/>
						<polygon class="st0" points="18.1,333.9 18.3,334.2 18,332.9 						"/>
						<polygon class="st0" points="18,330.9 18.3,331 18.1,330.3 						"/>
						<path class="st0" d="M15.1,162.2l-0.1-0.7C15.1,161.8,15.1,162,15.1,162.2z"/>
						<path class="st0" d="M15.1,167.1l0.1,0.1C15.1,167,15.1,166.9,15.1,167.1z"/>
						<path class="st0" d="M18,257.5c0.2-1,0.6-2.1,0.3-2l-0.3,0.3C18.1,256.5,18.1,257,18,257.5z"/>
						<path class="st0" d="M16.5,207.2c0,0.1-0.1,0.2-0.1,0.3c0.1,0.2,0.2,0.5,0.2,0.7C16.6,207.9,16.5,207.5,16.5,207.2z"/>
						<path class="st0" d="M15.4,206.5l0.2-1.3C15.5,205.5,15.4,205.9,15.4,206.5z"/>
						<path class="st0" d="M14.8,135.4l-0.3-0.8C14.6,135.9,14.7,135.3,14.8,135.4z"/>
						<path class="st0" d="M17.9,300.3c0.1-0.9,0.1-1.5,0.2-2.1C18,299.2,17.7,300,17.9,300.3z"/>
						<path class="st0" d="M17.9,164.1c0-0.4-0.1-0.6-0.2-0.6C17.7,163.9,17.8,164.2,17.9,164.1z"/>
						<path class="st0" d="M18.1,295.7c0,0.1,0,0.3-0.1,0.4c0,0.6,0.1,1.2,0.1,2C18.2,297.4,18.3,296.6,18.1,295.7z"/>
						<path class="st0" d="M15,38.5c0-0.1,0-0.2,0-0.2C15,38.2,15,38.3,15,38.5z"/>
						<path class="st0" d="M17.7,10.2c0,0.3,0,0.7,0,1.2C17.7,11.2,17.7,10.8,17.7,10.2z"/>
						<path class="st0" d="M18.2,318.9C18.2,319.5,18.2,319,18.2,318.9L18.2,318.9z"/>
						<path class="st0" d="M17.1,322c0-0.1-0.1-0.2-0.1-0.3C17.1,321.8,17.1,321.9,17.1,322z"/>
						<path class="st0" d="M16.5,289.4C16.5,289.4,16.5,289.4,16.5,289.4C16.4,289.5,16.4,289.5,16.5,289.4z"/>
						<path class="st0" d="M18,319.9c0-0.2,0.1-0.5,0.1-0.8C18.1,319.2,18.1,319.4,18,319.9z"/>
						<path class="st0" d="M18.2,319.7c0,0.2,0,0.4,0,0.6C18.2,320.4,18.2,320.3,18.2,319.7z"/>
						<path class="st0" d="M18.1,318c0,0.4,0,0.7,0,1c0-0.1,0-0.2,0-0.1C18.2,318.7,18.1,318.5,18.1,318z"/>
						<path class="st0" d="M15.7,90.4c0,0,0-0.1,0-0.1C15.6,89.6,15.7,89.9,15.7,90.4z"/>
						<path class="st0" d="M15.3,241C15.3,241,15.3,241,15.3,241C15.3,241,15.3,241,15.3,241L15.3,241z"/>
						<path class="st0" d="M15.1,238.7c0.3,1,0.3,1.5,0.2,2.3l0.8-0.8L15.1,238.7z"/>
						<path class="st0" d="M15,150.5l-0.2,1.6c-0.4-1.9-0.3-3.3-0.6-1.8c0.8,0.2,0.1,6.2,0.9,6.4l-0.2,1.1c0-0.3,0-0.4,0-0.6
							c-0.4,2.1,0.6,1.5,0.5,4.2c-0.1,0.9-0.2,1.6-0.3,0.9l0.2,2.1c0,0.6-0.2,0.5-0.1-0.1l0.1,3.1l0,0c0.1,0.4,0.3,1.5,0.4,2
							c-0.1,0.8-0.1-0.4-0.2-0.2l0.2,1.7c-0.2,0.7-0.4-0.7-0.4-1.9c-0.8,1.6,0.2,1.4-0.3,4.9l-0.1-1.6c-0.5,1.1-0.3,2.3-0.6,4.2
							c0.2-0.4,0.7-3.7,0.9-1.8c-0.1,0.5-0.1,1.2,0.1,2.2c-0.3,0-0.2,1-0.2,2.2l-0.4-0.1c0.1,1.3,0.3,1.2,0.5,2
							c0,1.5-0.3,1.8-0.6,2.2c-0.1,2.4,0.5-1.7,0.5,1.2c-0.1,2,0,3.4,0.2,5.8c-0.1,1.4-0.2-0.2-0.3,0.3l0.3,1.2
							c0,0.3-0.1,0.2-0.1,0.2c0.1,1,0.4,0.1,0.5,1.7c0.4,0.4-0.6,3.4-0.1,5.4c-0.1,0.5-0.2-0.2-0.4-0.1c0.3,2.8,0.2,2.4,0.7,4.7
							l-0.3,1.9c0.3-1.4,0.6,0.4,0.9,2c0.1-0.5,0.3-0.9,0.3-1.2l0.2,2.5c-0.1,0.3-0.2,0.1-0.4-0.4c0,0.2,0.1,0.3,0.1,0.5
							c-0.1,0.9-0.4,0.4-0.6-0.2c0.1-0.3,0.2-0.6,0.2-0.9c-0.2-0.6-0.5-1.2-0.7-1.1c0,0.2,0.1,0.5,0.1,0.8c-0.1-0.2-0.1-0.3-0.2-0.2
							c0,0.1,0,0.4,0.1,0.8l-0.4,0.6l0.2,0.1l-0.3,3.3c0.4,2.4,1.1,4.5,1.2,8.2c-0.3-0.9-0.5-0.2-0.9-0.3c0.4-1-0.2-2.9-0.1-4.9
							c0,1-0.2,0.8-0.3,0.5l0.4,3.5c-0.3-0.1-0.2,0.7-0.4,1.7c0.6-0.7,0.4,2.6,0.6,4c-0.2,0.1-0.4-0.3-0.4-2
							c-0.5,1.9,0.7,2.5,0.3,4.4c0-0.4,0-0.7-0.1-0.8c0.2,1,0,3.4-0.1,2.8l0-0.4c-0.1,2.8,0,8.6,0.5,9c-0.1,0-0.6-0.4-0.7-0.5l1.7,5
							c-0.4-0.4-1.5,1.3-1.7-1.1c-0.1,0.7-0.1,1.5,0,2.9c0.1-0.5,0.6-1.1,0.7-0.5c-0.5,1.7-0.3,1.2-0.7,3.3c0.1-0.7,0.8,0.1,0.8,1.2
							c-0.1-0.2-0.7,0.1-0.8-0.3l0.7,2.7c-0.1-0.7-0.6-0.1-0.8,0.5c0.1-0.3,0,2.3,0.1,3.1l0.2-1.1c-0.1,3,0.9,3,0.9,6
							c-0.1-0.4-0.9-0.9-0.9,0.6c0.3,0.7,1.7,3.1,1.9,5.8l-0.2,0.5l0.2,2.1c-0.5-1.3-1.6-4.9-2-6.8c-0.2,1.1-0.2,0.3-0.2,2
							c-0.2,0.6-0.3-0.9-0.3-1.4l-0.1,4c0.4-0.2,0.4,3,0.7,2.9l-0.4-4.3c0.4-0.2,1.1,2.5,1.1,5.3c-0.2,0.7-0.7-0.5-0.9-0.5
							c0.1,0.4,0.3,2.7,0.2,2.9l-0.2-1.2c-0.2,1.6,0.5,2.6,0.1,4.4c0,0.7-0.5,1.9-0.3,2.1c0.5-1.1,1.9-1.3,2.2-0.6
							c0,0.2-0.4,3.4-0.7,4.2c-0.4,1.1-0.9-1.6-1.2-0.7c0.1,0,0.2,0.6,0.3,0.9c-0.1,0.7-0.3-0.3-0.3,1.2c0.4,0.2,0,3,0.3,0.7
							c0.1,1.5-0.1,1.5-0.1,3.2c0.3-0.5,0.9,1.5,1,3c-0.1-0.1-0.2,0.2-0.3,0.4c0,3-0.2,4.6-0.2,7.3c-0.1,0.3-0.2,1.6-0.4,1
							c0.1,0.4,0.2,0.8,0.2,1.6c-0.4,1.7-0.1-1.9-0.5-0.6c0.2,0.1,0.3,2.2,0.5,3.4c0.4-0.4,0.1-2.8-0.1-4c0.5,0,1,2.1,1.3,5
							c0.1,2.3-0.3,1-0.3,1.4c-0.1,4.3,0.9,3.7,0.5,7.3c-0.3,1.4-0.6,0.1-0.9,0.4c-0.1-1.9,0.2-2.9,0.2-4.2l-0.2,1.6
							c-0.1-0.6-0.2-1.9-0.1-2.5c-0.3,1.2-0.1,7.3-0.3,10.7c0.1,0.6,0.2,1.6,0.3,1.1l0-1.1c0.3-1,0.4,2,0.5,0.7c0.2,1.4,0.5,3,0.3,5
							l-0.4,0.4c0.1,0,0.2-1.3,0.1-1.9c0.2,0.8-0.5,3.1,0,4l0.3-1.4c0.2,1.4,0.6,3.2,0.5,5c0.4-0.8,0-0.4,0.4-1.7
							c-0.5,1.1,0-4.5-0.5-2.8c0.5-1.3,0.2-2.2,0.6-3.9c-0.1,0.1-0.2,0.6-0.2-0.9c0-0.1-0.1-0.2-0.1-0.3c0,0,0-0.1,0-0.1
							c0,0,0,0.1,0,0.1c0-0.1,0-0.1,0,0c-0.1,0.4-0.1,0.6-0.2,0.8c-0.3-0.7-0.3-3.1-0.4-3.9c0.1-0.9,0.1,0.4,0.3-0.1l-0.2-1.2
							c0.3-0.1,0.4-2.3,0.6-0.3l0-1.9c0.2-1.1,0.2-2.6,0.1-3.5c0.1-0.9-0.3-2.2-0.1-1.5l-0.2-2.9l0.1,0c0-2.9-0.4-5.9,0-9.3
							c-0.1-1-0.2-2-0.1-3.6l0.2-0.3c-0.1-1.2,0.2-3.8,0-4.3c0.6-1.3,0.1-6.1,0.2-8.3l-0.3-0.1c0-1.5-0.1-3-0.2-4.8l-0.3,0.1
							c-0.2-1.6,0.2-4.2,0.2-6.7c0.1,0.2,0.1,0.8,0,1.3c0.6-3.1-0.4-6.5,0-9.2c-0.1-0.7-0.1-1.2,0-1.7c0,0.1,0,0.1,0,0.2
							c0-0.1,0-0.2,0-0.3c0-0.3,0.1-0.6,0.1-1c-0.1,0.3-0.1,0.6-0.1,0.8c0-0.5,0-1.3-0.1-2.1l0.3-0.3c0-0.1,0-0.1,0-0.2
							c0.1-0.8-0.1-0.6-0.4-0.2c0-0.4-0.1-0.8-0.2-1c0.5-0.6-0.2-2.1,0.3-2.9c-0.2-0.5-0.2-4-0.7-4.4c0.1,0,0.1-0.3,0.1,0.2
							c0.1-0.9,0.1-1.8,0-2.6l0.4-0.4l-0.5-1.9c0.2-1.2,0.4-1.7,0.6-0.5c-0.4-2.8-0.2-2.3-0.6-4.7l0.2,0.1c0-0.9-0.3-2.2-0.1-2.7
							c0.5-1.9,0.1-9.5,0.5-14.4c-0.7,1,0.3-2.3-0.2-2.5c0.2-0.3,0.3-1,0.4-0.2c-0.2-2.5,0.3-3.8-0.2-5.5c0.2-0.3,0.2,0.5,0.3,0.3
							c0-0.2-0.1-0.8,0-1.1c0.1-0.3,0.1,0.4,0.2,0.8c0-2.6-0.5-2.8-1-3c0.2-1.3,0.2-1.9-0.1-2.9c0.2-0.5,0.3-1.2,0.4,0.4
							c0-0.9,0.2-5.5-0.2-5.6c0.1-0.3,0-1.2,0-1.5c0-2,0.1-2.2,0-4.2l-0.1,0.5c-0.5-0.8-0.1-1.6-0.2-3.2l0,0
							c0.3-3.6-0.2-1.6,0.2-5.2l-0.3,0.2c-0.6-0.3,0.4-3.2,0.1-5.3l-0.2,0.8c-0.2-1.1,0.8-3.2,0.9-4.3c0.1-0.2,0.1,0.4,0.1,0.7
							c0.4-3-0.4-0.4-0.5-2.6c0.2-0.4,0.5,0.5,0.6-1c0.2-0.7-0.7-4.4-0.3-6.4c-0.2,0.5-0.3,0.9-0.4-0.1c-0.1-1.6,0.6-4.3,0.1-5.7
							c0-0.2,0.1-0.3,0.1-0.3c-0.1-1.2-0.2-3.9-0.5-4.7c1-1.1-0.5-7.5,0.4-7.5l0-3.7l0.1,0.1c0.1-2.4-0.2-3.2-0.4-4.1
							c0.1-0.6,0.1-0.1,0.2-0.1c0.2-3.5,0.1-3.8-0.3-6.8l0.3-0.3c-0.2-0.8,0.5-5,0.1-8.5c0,0,0.1,0.1,0.1,0.4
							c-0.3-3.8,0.8-9.2-0.3-10.6l-0.3-2.5c-0.1,3.3-0.5-0.5-0.6,0.9c-0.1-1.3,0.3-3.3,0.4-1.8l-0.1,0.2c0.6,0.6,0.2-4.1,0.6-4
							c0-6.5,0.3-12.8,0.3-18.8l-0.4,0.7l0-2.1c0.1-0.6,0.3-0.7,0.3,0.8c0.2-0.8-0.2-2.5-0.3-2.6c0.2-3,0.5,1.2,0.5,0.2l0-1.2
							l-0.1,0.3c-0.2-1-0.4-1.1-0.3-2.9c0.1-1.1,0.3-0.6,0.3-1c0,0,0-0.1,0-0.7l0-2.7l-0.3,1.1c-0.2-1.2,0-2.5-0.4-1.3
							c0.6-1.8,0.2-9.9,0.4-11c-0.3-1.7-0.2-3.3-0.2-5.3c-0.1,0.5-0.5,0.8-0.4-0.9c0.8,0.6,0.3-3.2,0.9-4.6c-0.4,1.3-0.1-5-0.6-3
							c0.1-1.5,0.3-0.1,0.5-1.2c-0.3-3.5,0.2-7.6,0.1-11.9c-0.1-0.1-0.3,0.6-0.4-0.3l0.5-2.3c-0.1-0.8-0.6-0.8-0.2-2.3
							c-0.1,0.2-0.2,0.5-0.3,0c0.5-8.4-0.4-17.1,0.5-25.6c-0.2,1.2-0.2,0.4-0.2-0.5c0,0.6-0.3,0-0.4,0.1l0.4-3.6
							c-0.4-0.6,0-3.8-0.4-4.2l0.1,1.1c-0.4-1.5-1,2.1-1.6,1.9c0.5,1.7-0.8,4.4,0,7.2c-0.1,0.6-0.2-0.5-0.3-0.2
							c0.2,0.7,0.3,1.5,0.2,3.1l-0.1-0.2c0.1,4.4-0.2,6.3-0.3,11.2l0.3-0.4c0,1.1-0.1,1.3-0.2,1.8c0.4,1.2,0-3,0.5-1.9
							c-0.6,1.4,0,7.5-0.7,8.4c0,1.6,0.3-0.5,0.3,1.2l-0.2,0.4l0.2,0.4c0,1.1-0.3,1.6-0.4,1.6c0-0.3,0-0.7-0.1-1
							c-0.2,1.4,0.1,3.9,0,4.4l0.1-1.6c0.2,4.5-0.1,9.9,0.3,14.2l0.1-0.3c0.2,3.3-0.1,2.6,0,6.2l0-0.1c0.1,0.7,0.2,1.7,0.2,2.7
							c-0.2-0.9-0.3,1.7-0.5,0.5c0.3,3.6,0.2,1.8,0.7,4.1l-0.2,0.5c0.2,0.8,0.3,0.9,0.4,2.7c-0.2-1.5-0.3,1.1-0.6-0.5
							C15,75,16,76.9,15.3,78.6c0.6,1.7,0.3-3.3,0.5-2.3c0.2-0.8,0.5,1.4,0.4,2.6c0,1.2-0.8,2.1-0.8,5.1c0-0.3,0-0.3,0-0.6
							c-0.2,1.1,0.2,2.2,0,3.6c0.4,0.8,0,1.8,0.5,2l-0.1-2.8c0.1,1.6,0.7,3.1,0.4,5.7c-0.1-0.2-0.2-1-0.3-1.5
							c-0.1,0.8,0.1,1.5-0.1,2.3c-0.5-0.2-0.1-3.4-0.5-5.1c-0.2,0.8,0.3,3.2-0.2,2.4c0.7,1.2-0.1,3,0.4,5l-0.3-0.1
							c0,0.3,0.2,1,0.2,1.6L15,95.4c0.3,1.7-0.3,3.2-0.1,4.8c0-3.3,0.3-0.8,0.6-2.2c0.4,4.1-0.7,2.4-0.6,7c0-0.6,0.2-2.3,0.3-1.4
							c-0.1,0.9-0.2,2-0.3,2.6c0.1,3.1,0.3-0.5,0.5,0.8c-0.3,1,0.1,1.5,0.3,2.8l-0.3,0c-0.2,3.5,0.6,0.9,0.4,4.1l-0.4-1.3l0.1,1.6
							l-0.3-0.3c0.2,1.8,0.2,2.3,0.1,4.1c0.2-0.4,0.5,0.2,0.5,1.8c-0.2,1.1-0.3-0.6-0.2,1.6c-0.2-0.5-0.4-1-0.1-2
							c-0.1-0.1-0.2-0.5-0.3-0.6c-0.2,1.1,0,2.9,0,3.6c0-0.3,0-0.7,0.1-0.9l0.4,3.2c-0.1,0.5-0.2,0.1-0.3-0.3c0,0.6,0.2,1.1,0.2,2
							c-0.2-0.2-0.5-0.2-0.6-1.5l0.3,3c-0.1,0.2-0.3,1.6-0.4,1.2c-0.1,1.7,0.5,4.1,0.3,6.3c0,0.1,0.1,0.3,0.1,0.8
							c-0.1,2.1-0.3,3.9,0,6.4l-0.4,1.4c0.1,1.9,0.5-1.9,0.7,1.3c0.1,2.3-0.4,0.9-0.5,1.7c0.2,1.1,0.6,3.1,0.3,5.2
							C15,151.6,15.1,151.1,15,150.5z M15.2,174.4c-0.1-0.5-0.2-1.4-0.1-1.7C15.5,173.2,15.3,173.6,15.2,174.4z M15.9,210.7
							c-0.1-0.3,0-0.9,0.1-1.5C16,209.7,16,210.2,15.9,210.7z M17.9,312C17.9,311.9,17.9,311.9,17.9,312C18,310.9,18,311.2,17.9,312
							z M17.8,314.1c0,0.2,0.1,0.2,0.1,0.1c-0.1-0.1-0.1-0.6-0.1-1.2C17.8,313.2,17.7,313.5,17.8,314.1z M17.7,83.6l-0.1,0.4
							C17.5,83.1,17.6,83.4,17.7,83.6z"/>
						<path class="st0" d="M15.5,206.6c0-0.1,0.1-0.2,0.2-0.2C15.6,206.2,15.6,206.2,15.5,206.6z"/>
						<path class="st0" d="M14.9,135.6C14.9,135.6,14.9,135.5,14.9,135.6c0-0.1,0-0.1,0-0.1L14.9,135.6z"/>
						<path class="st0" d="M15.3,280.9c0-0.4,0.1-0.7,0.1-0.9C15.4,280,15.4,280.2,15.3,280.9z"/>
						<path class="st0" d="M18.3,325.5l-0.1-1.4c0,0.7,0,0.9-0.1,1.2C18.2,325.3,18.3,325,18.3,325.5z"/>
						<path class="st0" d="M16.5,337.4c0,0.2,0,0.4,0,0.6l0.1-0.1C16.7,337.1,16.6,336.5,16.5,337.4z"/>
						<path class="st0" d="M17.3,326.7c-0.2,0.1-0.2,1-0.1,1.9c0-0.1,0-0.1,0-0.2C17.6,328.8,17.4,327.8,17.3,326.7z"/>
						<path class="st0" d="M17.2,328.9c0,0.3,0,0.6,0,0.9C17.4,329.9,17.3,329.4,17.2,328.9z"/>
						<path class="st0" d="M18,316.8c-0.1,0.5,0.3,0.3,0.2,0.5C18.5,317.9,17.8,314.3,18,316.8z"/>
						<polygon class="st0" points="16.5,327.5 16.8,327.2 16.6,326.6 						"/>
						<path class="st0" d="M16.7,319.9l-0.1,1.5c0.1,0,0.1,0.2,0.1,0.4C16.8,320.9,16.8,319.9,16.7,319.9z"/>
						<path class="st0" d="M16.8,321.9c0,0.5,0,1,0,1.2C16.8,322.8,16.8,322.3,16.8,321.9z"/>
						<polygon class="st0" points="16.4,325.4 16.5,325 16.5,323.9 						"/>
						<path class="st0" d="M16.8,303.4l-0.1-1.7c-0.1-0.2-0.2,0.3-0.1,0.9C16.7,303,16.7,303.6,16.8,303.4z"/>
						<path class="st0" d="M16,308.5c0.1-0.5,0.1-0.5,0.2-0.7l-0.4-0.1L16,308.5z"/>
						<path class="st0" d="M15.9,303.6c-0.1-0.2-0.3-2.4-0.3-0.3C15.7,303.4,15.8,305.1,15.9,303.6z"/>
						<polygon class="st0" points="16.4,278.3 16.4,278.7 17,278.6 						"/>
						<path class="st0" d="M14.9,256c-0.1,2,0.4,0.5,0.2,2.3c0.1,0.5,0.1-1.5,0.3-1C15.2,256,15.3,255.4,14.9,256z"/>
						<path class="st0" d="M15.4,257.2c0,0.2,0.1,0.4,0.1,0.6C15.4,257.5,15.4,257.3,15.4,257.2z"/>
						<polygon class="st0" points="18,5.5 18.1,4.2 17.9,5.1 						"/>
						<path class="st0" d="M17.5,3.1l0.4-0.3L17.6,2C17.6,2.3,17.6,2.9,17.5,3.1z"/>
						<path class="st0" d="M14.4,177.9L14.4,177.9c0.2-0.1,0.2-0.4,0.2-1L14.4,177.9z"/>
						<polygon class="st0" points="14.7,160.6 14.7,160.9 15.1,160.3 						"/>
						<path class="st0" d="M14.3,146c0,0.6,0.1,1.3,0,1.9C14.3,146.6,14.7,145.8,14.3,146z"/>
					</g>
				</g>
			</g>
		</g>
	</g>
	<g>
		<g>
			<g>
				<g>
					<g>
						<path class="st0" d="M4.4,374.5c0,0-0.1,0.1-0.1,0.1C4.4,374.6,4.5,374.5,4.4,374.5z"/>
						<polygon class="st0" points="5.2,375 5.2,375 5.4,375 						"/>
						<path class="st0" d="M5.8,375.6c0.1-0.2-0.2-0.2-0.2-0.4l0-0.1l-0.2,0.1C5.5,375.4,5.7,375.5,5.8,375.6z"/>
						<path class="st0" d="M5.6,376.3C5.7,376.2,5.7,376.3,5.6,376.3C5.6,376.2,5.6,376.2,5.6,376.3C5.6,376.2,5.6,376.2,5.6,376.3z
							"/>
						<path class="st0" d="M5.6,376.2C5.5,376.1,5.5,376.3,5.6,376.2L5.6,376.2z"/>
						<path class="st0" d="M5.9,376.5l-0.1,0c0,0.1,0,0.1,0,0.1C5.8,376.6,5.8,376.6,5.9,376.5z"/>
						<path class="st0" d="M6.1,376.4L6.1,376.4C6,376.4,6,376.5,6.1,376.4z"/>
						<path class="st0" d="M5.9,376.4l0.1,0C6,376.4,6.1,376.3,5.9,376.4C6,376.3,5.9,376.4,5.9,376.4z"/>
						<path class="st0" d="M5.9,376.3c0-0.1,0-0.2,0.1-0.1C5.8,376,5.7,376.1,5.9,376.3z"/>
						<path class="st0" d="M6,375.5l0-0.1l-0.1,0C5.9,375.4,5.9,375.5,6,375.5z"/>
						<path class="st0" d="M6.2,377.1c0,0,0.1-0.1,0.1-0.2l-0.1,0C6.2,377,6.3,377,6.2,377.1z"/>
						<path class="st0" d="M6.3,376.9l0.1,0C6.4,376.9,6.4,376.9,6.3,376.9z"/>
						<polygon class="st0" points="6.3,376.3 6,376.2 6.3,376.3 						"/>
						<polygon class="st0" points="6.5,377.5 6.4,377.5 6.6,377.5 						"/>
						<path class="st0" d="M6.7,377.7c-0.1,0-0.1,0.2-0.2,0.2c0.1,0.1,0.2,0.1,0.3,0.1C6.8,377.9,6.7,377.8,6.7,377.7z"/>
						<path class="st0" d="M7,377.9c0,0-0.1,0-0.2,0C6.9,377.9,6.9,377.9,7,377.9z"/>
						<path class="st0" d="M6.6,377.1c0,0-0.1,0.1-0.1,0.2L6.6,377.1L6.6,377.1z"/>
						<path class="st0" d="M6.6,377.2L6.6,377.2C6.7,377.2,6.7,377.3,6.6,377.2C6.7,377.3,6.7,377.2,6.6,377.2z"/>
						<path class="st0" d="M6.6,377.1L6.6,377.1C6.6,377.1,6.6,377.1,6.6,377.1z"/>
						<path class="st0" d="M6.4,376.6c0.1,0,0.3,0.1,0.3-0.1C6.6,376.5,6.6,376.6,6.4,376.6z"/>
						<path class="st0" d="M6.7,377l-0.1-0.1c0,0-0.1,0.1-0.1,0.1L6.7,377z"/>
						<polygon class="st0" points="6.8,377 6.7,377 6.7,377 						"/>
						<path class="st0" d="M7,377.7c0.1,0,0.1,0,0.2,0.1c0-0.1-0.1-0.1-0.1-0.2C7,377.6,6.9,377.6,7,377.7z"/>
						<path class="st0" d="M6.8,377.4L6.8,377.4C6.8,377.4,6.8,377.4,6.8,377.4z"/>
						<polygon class="st0" points="7.6,378.3 7.6,378.3 7.6,378.3 						"/>
						<path class="st0" d="M7,377.5c0-0.1-0.1-0.1-0.1-0.1C7,377.5,7,377.5,7,377.5C7.1,377.6,7.1,377.5,7,377.5z"/>
						<path class="st0" d="M7.2,378c0,0,0-0.1,0-0.1C7.2,378,7.1,378.1,7.2,378z"/>
						<path class="st0" d="M6.8,377.5L6.8,377.5C6.8,377.5,6.8,377.5,6.8,377.5z"/>
						<path class="st0" d="M6.8,377.5c0,0,0.1,0,0.1,0C6.9,377.5,6.9,377.4,6.8,377.5C6.8,377.4,6.8,377.5,6.8,377.5z"/>
						<path class="st0" d="M8.4,377.9c-0.1,0.1-0.3,0-0.3-0.2c-0.2,0-0.4,0.3-0.6,0.6c0,0,0.1-0.1,0.2,0c0-0.1-0.1-0.3,0.1-0.3
							c0.2,0.1,0.1,0.1,0.1,0.3c0.1-0.2,0.3,0,0.5-0.2L8.3,378C8.4,377.9,8.4,377.9,8.4,377.9z"/>
						<path class="st0" d="M7.5,378.1L7.5,378.1c0,0,0,0.1-0.1,0.2c0.1,0,0.2,0,0.2,0L7.5,378.1L7.5,378.1z"/>
						<path class="st0" d="M7.3,377.9c0.1-0.1,0.3,0,0.3-0.2c-0.1-0.1-0.2,0-0.3,0C7.5,377.8,7.2,377.7,7.3,377.9
							c0,0-0.1-0.1-0.1-0.1C7.2,377.8,7.2,377.9,7.3,377.9L7.3,377.9L7.3,377.9L7.3,377.9C7.2,377.9,7.2,377.9,7.3,377.9L7.3,377.9
							C7.2,377.9,7.2,377.9,7.3,377.9C7.3,377.9,7.2,377.9,7.3,377.9L7.3,377.9L7.3,377.9l0.2,0.2C7.4,378,7.3,377.9,7.3,377.9z"/>
						<path class="st0" d="M7,376.4C7,376.4,7,376.4,7,376.4C7,376.4,7,376.4,7,376.4z"/>
						<path class="st0" d="M7,376.5c0,0-0.1,0-0.1,0c0-0.1,0.1,0,0.1-0.1c-0.1,0-0.2,0-0.1,0.1l0,0c0,0.1,0,0.3-0.1,0.3
							C6.9,376.8,6.9,376.7,7,376.5z"/>
						<path class="st0" d="M7.2,377.2l0.2,0.1l0-0.2l-0.1,0.1C7.3,377.1,7.2,377.2,7.2,377.2z"/>
						<polygon class="st0" points="7.5,378.4 7.4,378.5 7.7,378.4 						"/>
						<polygon class="st0" points="7.7,378.6 7.6,378.7 7.7,378.7 						"/>
						<path class="st0" d="M17.7,384.6L17.7,384.6C17.7,384.5,17.7,384.5,17.7,384.6z"/>
						<path class="st0" d="M17.4,384.9L17.4,384.9C17.4,384.9,17.4,384.9,17.4,384.9z"/>
						<path class="st0" d="M12.1,383.9c0,0.2-0.1,0.4,0,0.2l0.1-0.1C12.1,384,12.1,383.9,12.1,383.9z"/>
						<path class="st0" d="M15.7,386.9L15.7,386.9C15.7,386.9,15.6,386.9,15.7,386.9C15.6,386.9,15.6,386.9,15.7,386.9z"/>
						<path class="st0" d="M16,386.3l0,0.2C16,386.4,16,386.3,16,386.3z"/>
						<path class="st0" d="M19.1,382.5l-0.1-0.2C19,382.5,19.1,382.5,19.1,382.5z"/>
						<path class="st0" d="M9.6,380.8c0,0.1,0,0.2,0.1,0.2C9.6,380.8,9.7,380.7,9.6,380.8z"/>
						<path class="st0" d="M18.8,385.7C18.8,385.6,18.8,385.6,18.8,385.7C18.8,385.6,18.8,385.7,18.8,385.7z"/>
						<path class="st0" d="M9.8,381.1C9.8,381.1,9.8,381.1,9.8,381.1c-0.1-0.1-0.1-0.1-0.1-0.2C9.6,381.1,9.6,381.1,9.8,381.1z"/>
						<path class="st0" d="M25,375.7C25,375.6,25,375.6,25,375.7C25,375.6,25,375.6,25,375.7z"/>
						<path class="st0" d="M27.8,374.6C27.8,374.6,27.7,374.6,27.8,374.6C27.7,374.6,27.8,374.6,27.8,374.6z"/>
						<path class="st0" d="M8.4,379.5C8.3,379.4,8.4,379.5,8.4,379.5L8.4,379.5z"/>
						<path class="st0" d="M8.7,378.9C8.7,378.9,8.7,378.9,8.7,378.9C8.7,378.9,8.7,378.9,8.7,378.9z"/>
						<path class="st0" d="M10.9,381L10.9,381C10.9,381,10.9,381,10.9,381z"/>
						<path class="st0" d="M8.4,379.4C8.4,379.4,8.4,379.4,8.4,379.4C8.4,379.4,8.4,379.4,8.4,379.4z"/>
						<path class="st0" d="M8.3,379.4C8.3,379.4,8.3,379.4,8.3,379.4C8.3,379.4,8.3,379.4,8.3,379.4z"/>
						<path class="st0" d="M8.5,379.5C8.4,379.5,8.4,379.5,8.5,379.5C8.4,379.5,8.4,379.5,8.5,379.5C8.4,379.5,8.4,379.5,8.5,379.5z
							"/>
						<path class="st0" d="M22.2,379.6C22.2,379.6,22.2,379.6,22.2,379.6C22.2,379.5,22.2,379.6,22.2,379.6z"/>
						<polygon class="st0" points="14.2,384.1 14.2,384.1 14.2,384.1 						"/>
						<path class="st0" d="M14.4,384.2c-0.2,0-0.2,0-0.2-0.1l-0.3,0.3L14.4,384.2z"/>
						<path class="st0" d="M18.4,383.7l-0.2,0c-0.1-0.3,0.1-0.3-0.1-0.3c0.3,0.3-0.3,0.5,0,0.8l-0.1,0c0,0,0,0,0-0.1
							c-0.3,0,0.2,0.3,0,0.5c-0.1,0-0.2,0-0.2,0l0,0.2c0,0-0.1,0-0.1-0.1l-0.2,0.2l0,0c0,0.1,0.1,0.2,0.1,0.3c-0.1,0,0-0.1-0.1-0.1
							l0,0.2c-0.1,0-0.1-0.2-0.1-0.3c-0.5-0.2,0,0.2-0.4,0.3l0.1-0.2c-0.3-0.1-0.3,0.1-0.5,0.1c0.1,0,0.5,0,0.5,0.2
							c-0.1,0-0.1,0.1-0.1,0.2c-0.1-0.1-0.2,0-0.2,0.1l-0.2-0.1c0,0.1,0,0.2,0.1,0.3c-0.1,0-0.2-0.1-0.3-0.2c-0.1,0,0.2,0.2,0.2,0.3
							c-0.1,0-0.1,0.1-0.1,0.3c-0.1,0,0-0.2-0.1-0.2c0,0.1,0,0.2,0,0.2c0,0,0-0.1,0-0.1c0,0.1,0.1,0.3,0,0.4c0,0.3-0.1-0.2-0.2,0
							c0,0,0,0,0,0.1c0-0.1,0-0.2,0-0.3c-0.1,0.2-0.1,0.1-0.2,0.3c0-0.1,0-0.2,0-0.3c0,0.3-0.1,0.4-0.3,0.5c0,0.1,0,0.2,0,0.3
							c-0.1,0-0.1-0.1-0.2-0.1c0-0.1,0.1-0.1,0.1-0.2l-0.1,0c0-0.1,0.1-0.2,0.2-0.3c0,0.1,0,0.1,0,0.2c0.1-0.1,0.2-0.2,0.2-0.4
							c0,0,0,0-0.1,0c0,0,0-0.1,0-0.1c0,0,0,0-0.1,0l0.1-0.3l-0.1,0.1c0-0.1,0-0.2,0-0.3c-0.2,0.1-0.6,0.2-0.9,0
							c0.2,0,0.2-0.2,0.4-0.3c-0.1,0.2,0.2,0.2,0.3,0.3c0-0.1,0-0.1,0.1-0.1l-0.4-0.1c0.1-0.1,0.1-0.1,0.1-0.2
							c-0.2,0.3-0.3,0-0.5-0.1c0.1-0.1,0.2-0.1,0.3,0c0.1-0.3-0.5,0.1-0.4-0.2c0,0,0,0.1,0.1,0c-0.1,0-0.2-0.2-0.1-0.3l0,0
							c-0.1-0.2-0.5-0.6-0.8-0.5c0,0,0.3-0.2,0.3-0.2l-1,0.3c0.2-0.1,0.6-0.6,0.8-0.5c0-0.1,0-0.2-0.2-0.2c0,0.1-0.2,0.3-0.3,0.3
							c0.1-0.3,0-0.2,0.1-0.5c0,0.1-0.3,0.3-0.4,0.2c0.1,0,0.3-0.2,0.3-0.2l-0.5,0c0.1,0,0.3-0.2,0.3-0.3c0,0.1-0.1-0.2-0.2-0.2
							l0,0.1c-0.1-0.3-0.6,0.1-0.8-0.1c0.1,0,0.4-0.2,0.4-0.4c-0.2,0.1-0.9,0.4-1.2,0.3l0.1-0.1l-0.2-0.1c0.3-0.1,1-0.2,1.3-0.2
							c0-0.1,0.1-0.1,0-0.2c0-0.1,0.2,0,0.2,0l-0.2-0.3c-0.2,0.2-0.4-0.1-0.5,0.1l0.4,0.2c-0.2,0.2-0.6,0.2-0.8,0
							c0-0.1,0.3-0.2,0.4-0.3c-0.1,0-0.3-0.1-0.2-0.2l0.2,0c0-0.2-0.4,0-0.3-0.3c0-0.1,0.1-0.3,0-0.2c-0.1,0.2-0.8,0.8-0.9,0.8
							c0,0,0-0.4,0-0.5c0.1-0.2,0.5-0.2,0.6-0.4c-0.1,0-0.1,0-0.2,0c0-0.1,0.2-0.1,0.1-0.2c-0.2,0.1-0.2-0.2-0.2,0.1
							c-0.1-0.1-0.1-0.1-0.2-0.3c-0.1,0.1-0.5,0.2-0.6,0.1c0.1,0,0.1-0.1,0.1-0.1c-0.2-0.2-0.2-0.4-0.3-0.6c0-0.1,0-0.2,0.1-0.2
							c-0.1,0-0.1,0-0.2,0c0.1-0.2,0.1,0.1,0.2-0.1c-0.1,0.1-0.3,0-0.4-0.1c-0.1,0.2,0.1,0.2,0.3,0.3c-0.2,0.2-0.6,0.2-0.9,0.1
							c-0.2-0.1,0.1-0.2,0-0.2c-0.2-0.3-0.6,0.1-0.7-0.3c0.1-0.2,0.3-0.2,0.4-0.3c0.2,0.1,0.1,0.3,0.2,0.4l0-0.2
							c0.1,0,0.2,0.1,0.2,0.1c0.1-0.2-0.4-0.5-0.5-0.9c-0.1,0-0.2,0-0.2,0l0.1,0.1c-0.1,0.2-0.3,0-0.2,0.1c-0.2,0-0.4,0-0.4-0.2
							l0.1-0.2c0,0,0,0.2,0.1,0.2c-0.1,0,0-0.4-0.2-0.3l0,0.2c-0.2,0-0.4,0-0.5-0.2c-0.1,0.2,0,0-0.1,0.3c0.2-0.3,0.3,0.3,0.4,0
							c-0.1,0.3,0,0.2,0,0.5c0.1,0,0.1-0.1,0.1,0c0,0,0,0,0.1,0l0,0l0,0c0,0,0,0,0,0c0,0,0-0.1,0-0.1c0.2,0,0.3,0.1,0.4,0.1
							c0,0.1-0.1,0-0.1,0.1l0.2,0c-0.1,0.1-0.1,0.3-0.3,0.2l0.1,0.1c0,0.1,0.1,0.3,0.2,0.3c0,0.1,0.3,0.1,0.1,0.1l0.2,0.2l0,0
							c0.2,0.2,0.5,0.3,0.5,0.7c0.1,0,0.2,0.1,0.2,0.2l-0.1,0.1c0.1,0.1,0.1,0.4,0.3,0.3c-0.2,0.3,0.3,0.5,0.4,0.7l0.1-0.1
							c0.1,0.1,0.2,0.2,0.4,0.3l0.1-0.1c0.2,0,0.2,0.4,0.3,0.5c-0.1,0-0.1,0-0.1-0.1c-0.1,0.4,0.6,0.3,0.5,0.7
							c0.1,0,0.1,0.1,0.1,0.1c0,0,0,0,0,0c0,0,0,0,0,0c0,0,0,0.1,0,0.1c0,0,0-0.1,0-0.1c0,0,0.1,0.1,0.2,0.1l-0.1,0.1c0,0,0,0,0,0
							c0,0.1,0.1,0,0.2-0.1c0,0,0.1,0,0.1,0c-0.2,0.2,0.2,0.1,0,0.3c0.1,0,0.3,0.2,0.6,0.1c0,0,0,0.1-0.1,0c0,0.1,0.1,0.2,0.2,0.2
							l-0.1,0.2l0.3,0c0,0.2-0.1,0.2-0.3,0.3c0.4,0,0.2,0.1,0.5,0.1l-0.1,0.1c0.1,0.1,0.3,0,0.2,0.1c-0.1,0.3,0.5,0.7,0.6,1.2
							c0.3-0.3,0,0.3,0.2,0.1c-0.1,0.1-0.1,0.2-0.2,0.2c0.1,0.1,0.1,0.1,0.2,0.2c0.1,0.1,0.1,0.2,0.3,0.2c0,0.1-0.1,0-0.2,0.1
							c0,0,0.1,0,0.1,0.1c0,0.1-0.1,0-0.2,0c0.3,0.3,0.4,0.1,0.6-0.2c0,0.2,0.1,0.3,0.2,0.2c0,0.1,0,0.3-0.1,0.2
							c0.1,0.1,0.4,0.7,0.5,0.4c0,0.1,0.1,0.1,0.1,0.1c0.1,0.1,0.1,0.2,0.1,0.2c0.1-0.1,0.1-0.1,0.2-0.2l0,0c0-0.5,0.1-0.2,0.2-0.4
							l0,0c0.3-0.1,0.1-0.2,0.4-0.3l-0.1-0.1c-0.1-0.4,0.3-0.1,0.4-0.4l-0.1,0c0-0.2,0.6,0,0.7,0c0,0,0,0.1,0,0.1
							c0.3-0.1-0.1-0.2,0-0.4c0.1,0,0.2,0.2,0.3,0.1c0.1,0,0-0.5,0.3-0.6c-0.1,0-0.2,0-0.2-0.2c0.1-0.1,0.5-0.1,0.4-0.4
							c0,0,0.1,0,0.1,0c0-0.1,0.1-0.4,0.1-0.5c0.5,0.3,0.2-0.7,0.6-0.4l0.2-0.3l0,0c0.2-0.1,0.1-0.3,0.1-0.4c0.1,0,0.1,0,0.1,0.1
							c0.3-0.2,0.3-0.2,0.3-0.6l0.1,0.1c0-0.1,0.5-0.2,0.6-0.6c0,0,0,0,0,0.1c0.1-0.4,0.9-0.4,0.5-0.9l0-0.3
							c-0.2,0.2-0.2-0.2-0.3-0.2c0-0.1,0.3-0.1,0.3,0l0,0c0.2,0.2,0.3-0.2,0.5-0.1c0.4-0.5,0.9-0.8,1.2-1.2l-0.2-0.1l0.1-0.1
							c0.1,0,0.2,0.1,0.1,0.2c0.2,0,0.1-0.3,0-0.3c0.3-0.1,0.2,0.3,0.2,0.2l0.1-0.1l0,0c0-0.1-0.1-0.2,0-0.3c0.1-0.1,0.2,0.1,0.2,0
							c0,0,0,0,0,0l0.2-0.2l-0.2,0c0-0.1,0.2-0.2-0.1-0.2c0.4,0.1,0.7-0.6,0.8-0.6c0-0.2,0.1-0.3,0.2-0.5c-0.1,0-0.2-0.1-0.1-0.2
							c0.3,0.3,0.3-0.1,0.7,0c-0.2,0,0.3-0.4-0.1-0.4c0.1-0.1,0.1,0.1,0.3,0.1c0.1-0.4,0.5-0.5,0.7-0.8c0,0-0.2,0-0.2-0.2l0.4,0
							c0-0.1-0.2-0.3,0-0.3c-0.1,0-0.1,0-0.1-0.1c0.7-0.4,0.8-1.4,1.7-1.6c-0.2,0-0.1-0.1-0.1-0.1c-0.1,0-0.1-0.1-0.2-0.1l0.4-0.1
							c-0.1-0.2,0.2-0.3,0.1-0.4l0,0.1c-0.1-0.3-0.6-0.2-0.8-0.4c0.1,0.3-0.6,0-0.4,0.5c-0.1,0-0.1-0.1-0.1-0.1
							c0.1,0.1,0,0.2-0.1,0.3l0,0c-0.2,0.3-0.4,0.4-0.8,0.7l0.1,0.1c-0.1,0.1-0.1,0-0.2,0.1c0.1,0.2,0.2-0.2,0.3,0
							c-0.3-0.1-0.4,0.5-0.8,0.4c-0.1,0.1,0.2,0.1,0.1,0.2l-0.1,0l0.1,0.1c-0.1,0.1-0.2,0-0.3,0c0,0,0-0.1,0-0.1
							c-0.2,0-0.2,0.3-0.3,0.3l0.1-0.1c-0.2,0.4-0.6,0.7-0.7,1.1l0.1,0c-0.1,0.3-0.2,0.1-0.4,0.4l0,0c0,0.1,0,0.2-0.1,0.3
							c0-0.1-0.2,0-0.2-0.1c-0.1,0.4,0,0.2,0.1,0.5l-0.1,0c0,0.1,0.1,0.2,0,0.3c0-0.2-0.2,0-0.2-0.2c-0.4,0.1-0.1,0.6-0.5,0.4
							c0.2,0.3,0.3-0.1,0.3,0c0.1,0,0.1,0.3,0,0.3c-0.1,0.1-0.5-0.1-0.6,0.1c0,0,0,0,0-0.1c-0.1,0,0,0.2-0.2,0.2
							c0.1,0.2-0.1,0.1,0.1,0.3l0.1-0.2c0,0.2,0.1,0.5-0.2,0.6c0,0,0-0.1,0-0.2c-0.1,0,0,0.1-0.2,0.1c-0.2-0.2,0.2-0.3,0.1-0.5
							c-0.1,0,0,0.4-0.2,0.1c0.2,0.3-0.2,0.2-0.1,0.5l-0.1-0.1c0,0,0,0.1,0,0.2l-0.1-0.2c0,0.2-0.3,0.1-0.3,0.3
							c0.2-0.2,0.2,0.1,0.4,0c-0.1,0.4-0.5-0.1-0.7,0.3c0-0.1,0.2-0.1,0.2,0c-0.1,0-0.2,0.1-0.3,0.1c-0.2,0.2,0.2,0.1,0.2,0.2
							c-0.2,0,0,0.2-0.1,0.3l-0.1-0.1c-0.3,0.2,0.2,0.3-0.1,0.4l-0.1-0.2l-0.1,0.2l-0.1-0.1c0,0.2-0.1,0.2-0.2,0.3
							c0.1,0,0.2,0.2,0.1,0.3c-0.1,0-0.1-0.1-0.2,0c-0.1-0.1-0.1-0.2,0.1-0.2c0,0-0.1-0.1-0.1-0.1c-0.2,0-0.2,0.2-0.2,0.2
							c0,0,0.1,0,0.1,0l0,0.4c-0.1,0-0.1-0.1-0.1-0.1c0,0.1,0,0.1,0,0.2c-0.1-0.1-0.2-0.2-0.2-0.3l-0.1,0.3c-0.1,0-0.2,0-0.2,0
							c-0.2,0.1,0,0.5-0.3,0.6c0,0,0,0.1,0,0.1c-0.1,0.1-0.4,0.2-0.4,0.5l-0.3-0.1c-0.1,0.2,0.3,0.1,0.2,0.3
							c-0.1,0.2-0.2-0.1-0.3-0.1c0,0.2,0.1,0.5-0.2,0.5C18.3,383.8,18.3,383.7,18.4,383.7z M17,385.5c0-0.1,0-0.2,0.1-0.2
							C17.2,385.5,17.1,385.4,17,385.5z M15.7,386.4c0,0,0.1,0,0,0.1C15.7,386.5,15.7,386.5,15.7,386.4z M8.9,379.9L8.9,379.9
							C8.9,380,8.9,380,8.9,379.9z M8.8,379.7C8.8,379.7,8.8,379.7,8.8,379.7C8.8,379.7,8.8,379.8,8.8,379.7
							C8.9,379.8,8.9,379.7,8.8,379.7z M23.5,379.8L23.5,379.8C23.4,379.8,23.4,379.8,23.5,379.8z"/>
						<path class="st0" d="M15.9,386.4c0,0,0,0.1,0,0.1C15.9,386.4,15.9,386.4,15.9,386.4z"/>
						<polygon class="st0" points="19.2,382.6 19.2,382.6 19.1,382.5 						"/>
						<path class="st0" d="M11.9,381.2c0,0,0,0.1,0,0.1C11.9,381.3,11.9,381.3,11.9,381.2z"/>
						<path class="st0" d="M7.9,379.1l0.1,0.1C8,379.1,8,379.1,7.9,379.1C8,379,8,379.1,7.9,379.1z"/>
						<path class="st0" d="M8,377.6C8,377.6,8,377.5,8,377.6l-0.1,0C8,377.6,8.1,377.6,8,377.6z"/>
						<path class="st0" d="M8.3,378.6c0.1-0.1,0-0.1-0.1-0.2l0,0C8.1,378.6,8.2,378.6,8.3,378.6z"/>
						<path class="st0" d="M8.2,378.4C8.2,378.4,8.2,378.4,8.2,378.4C8.1,378.4,8.2,378.4,8.2,378.4z"/>
						<path class="st0" d="M8.6,379.6c0-0.1-0.2,0.1-0.1,0C8.3,379.7,8.8,379.7,8.6,379.6z"/>
						<polygon class="st0" points="8.6,378.3 8.5,378.4 8.6,378.4 						"/>
						<path class="st0" d="M9,378.9l-0.1-0.1c0,0,0,0-0.1,0C8.9,378.8,8.9,378.9,9,378.9z"/>
						<path class="st0" d="M8.8,378.8C8.8,378.7,8.8,378.7,8.8,378.8C8.8,378.7,8.8,378.8,8.8,378.8z"/>
						<polygon class="st0" points="8.8,378.4 8.8,378.5 8.8,378.5 						"/>
						<path class="st0" d="M9.9,380.1l0.1,0.1c0.1,0,0.1-0.1,0-0.1C10,380.1,9.9,380.1,9.9,380.1z"/>
						<path class="st0" d="M10,379.5c0,0.1,0,0.1-0.1,0.1l0.2-0.1L10,379.5z"/>
						<path class="st0" d="M10.3,379.8c0.1,0,0.3,0.1,0.1-0.1C10.4,379.7,10.2,379.6,10.3,379.8z"/>
						<polygon class="st0" points="11.6,381.8 11.5,381.7 11.3,382 						"/>
						<path class="st0" d="M13.5,382.9c-0.1-0.2-0.2,0.1-0.2-0.1c-0.1,0,0,0.2-0.1,0.2C13.4,383,13.4,383,13.5,382.9z"/>
						<path class="st0" d="M13.2,382.9C13.2,382.9,13.2,382.9,13.2,382.9C13.2,382.9,13.2,382.9,13.2,382.9z"/>
						<polygon class="st0" points="28.2,374.3 28.3,374.3 28.2,374.3 						"/>
						<path class="st0" d="M28.1,374l0.2,0.1L28.1,374C28.2,374,28.2,374,28.1,374z"/>
						<path class="st0" d="M16.5,385.4L16.5,385.4c0.1,0.1,0.1,0,0.2,0L16.5,385.4z"/>
						<polygon class="st0" points="17.6,384.3 17.6,384.3 17.8,384.4 						"/>
						<path class="st0" d="M18.3,383.1c0,0,0,0.1-0.1,0.2C18.2,383.1,18.5,383.2,18.3,383.1z"/>
					</g>
				</g>
			</g>
		</g>
	</g>
</g>
</svg>
