<?xml version="1.0" encoding="utf-8"?>
<!-- Generator: Adobe Illustrator 22.1.0, SVG Export Plug-In . SVG Version: 6.00 Build 0)  -->
<svg version="1.1" id="Layer_1" xmlns="http://www.w3.org/2000/svg" xmlns:xlink="http://www.w3.org/1999/xlink" x="0px" y="0px"
	 viewBox="0 0 322 198" style="enable-background:new 0 0 322 198;" xml:space="preserve">
<style type="text/css">
	.st0{fill:#FFFFFF;}
	.st1{opacity:0.62;fill-rule:evenodd;clip-rule:evenodd;fill:#868686;stroke:#868686;stroke-width:0.216;stroke-miterlimit:2.6131;}
	.st2{fill-rule:evenodd;clip-rule:evenodd;fill:#FFFFFF;}
	.st3{fill:#1D1D1B;}
	.st4{fill:#2DA343;}
	.st5{fill-rule:evenodd;clip-rule:evenodd;fill:#EE3524;}
	.st6{fill-rule:evenodd;clip-rule:evenodd;fill:#2DA343;}
	.st7{fill-rule:evenodd;clip-rule:evenodd;fill:#1D1D1B;}
</style>
<g id="XMLID_1363_">
	<path id="XMLID_1441_" class="st1" d="M37.1,53.1h11.3l15.1,32.4c0.8,1.7,1.5,2.8,2.2,3.2c0.6,0.4,1.8,0.6,3.5,0.6v5.8H45.4v-5.8
		l1.4,0c1.3,0,2.3-0.2,2.8-0.4c0.5-0.3,0.8-0.6,0.8-1.1c0-0.4-0.2-1.1-0.7-2.2l-1.5-3.8H32.9L31,86c-0.4,0.9-0.6,1.5-0.6,1.8
		c0,0.3,0.1,0.6,0.4,0.9c0.3,0.3,0.7,0.5,1.4,0.6c0.4,0.1,1.5,0.1,3.4,0.1v5.8H16.1v-5.8c1.2,0,2.2-0.1,2.7-0.3
		c0.6-0.2,1-0.5,1.4-0.8c0.4-0.4,0.8-1,1.2-2L37.1,53.1L37.1,53.1z M35.5,75.7h10.1l-4.9-11.6L35.5,75.7L35.5,75.7z M72,53.1h24.5
		V59h-1.6c-1.6,0-2.5,0.1-2.9,0.2c-0.6,0.2-1,0.5-1.2,0.9c-0.3,0.4-0.4,1.2-0.4,2.3v11.2L106,61.4c0.7-0.5,1.1-0.9,1.3-1.1
		c0.1-0.2,0.2-0.4,0.2-0.5c0-0.3-0.1-0.5-0.4-0.6c-0.3-0.1-1-0.2-2.1-0.2h-2v-5.8h22.7V59h-0.8c-1.1,0-1.8,0-2.2,0.1
		c-0.4,0.1-0.9,0.3-1.5,0.6c-0.6,0.3-1.4,0.8-2.3,1.5l-12.1,8.8l14.5,16.3c1.3,1.4,2.2,2.2,2.7,2.5c0.8,0.4,1.9,0.5,3.3,0.5h1v5.8
		h-25.4v-5.8h1c1.9,0,3-0.1,3.4-0.2c0.4-0.1,0.6-0.3,0.6-0.5c0-0.2-0.4-0.8-1.1-1.7L98,76.4l-7.6,5.4V86c0,1,0.1,1.8,0.4,2.2
		c0.2,0.4,0.6,0.7,1,0.9c0.4,0.2,1.3,0.3,2.7,0.3h2.1v5.8H72v-5.8h1.8c1.4,0,2.4-0.1,2.9-0.3c0.5-0.2,0.8-0.5,1-0.9
		c0.2-0.3,0.3-1.2,0.3-2.5V62.7c0-1.2-0.1-2.1-0.3-2.5c-0.2-0.4-0.6-0.7-1-1C76.1,59.1,75.2,59,74,59H72V53.1L72,53.1z M131.1,59
		v-5.8h28.6c4.4,0,7.8,0.4,10.3,1.3c2.5,0.9,4.4,2.1,5.8,3.7c1.4,1.6,2,3.3,2,5.3c0,1.4-0.3,2.7-1.1,3.9c-0.7,1.2-1.7,2.3-3.1,3.3
		c-1.3,1-3.1,1.7-5.3,2.4c2.3,0.5,4.2,1,5.4,1.7c1.8,0.8,3.2,2,4.3,3.5c1.1,1.5,1.6,3.2,1.6,5.1c0,2.2-0.8,4.3-2.4,6.2
		c-1.6,1.9-3.9,3.3-6.8,4.3c-2.9,1-7.2,1.5-12.9,1.5h-26.4v-5.8h2c1.3,0,2.2-0.1,2.7-0.3c0.5-0.2,0.8-0.5,1-0.8
		c0.2-0.4,0.3-1.1,0.3-2.4V62.4c0-1.2-0.1-2-0.3-2.4c-0.2-0.3-0.5-0.6-1-0.8c-0.5-0.2-1.4-0.3-2.7-0.3H131.1L131.1,59z M149.5,70.1
		h5.5c2.9,0,5-0.2,6.4-0.6c1.4-0.4,2.4-1,3.1-1.8c0.7-0.8,1-1.8,1-2.8c0-1.1-0.3-2.1-1-2.8c-0.7-0.8-1.6-1.3-2.9-1.7
		c-1.3-0.3-3.5-0.5-6.7-0.5h-5.5V70.1L149.5,70.1z M149.5,76.3v9.1c0,1.3,0.1,2,0.2,2.3c0.1,0.3,0.3,0.5,0.6,0.6
		c0.3,0.1,1,0.2,2.3,0.2h3.7c2.1,0,3.9-0.2,5.3-0.5c1.4-0.3,2.6-1,3.6-2.1c1-1,1.5-2.3,1.5-3.8c0-1.2-0.3-2.3-1-3.2
		c-0.7-0.9-1.7-1.5-3.1-2c-1.4-0.4-3.5-0.7-6.4-0.7H149.5L149.5,76.3z M202.4,53.1h11.3l15.1,32.4c0.8,1.7,1.5,2.8,2.2,3.2
		c0.6,0.4,1.8,0.6,3.5,0.6v5.8h-23.8v-5.8l1.4,0c1.3,0,2.3-0.2,2.8-0.4c0.5-0.3,0.8-0.6,0.8-1.1c0-0.4-0.2-1.1-0.7-2.2l-1.5-3.8
		h-15.3l-1.9,4.2c-0.4,0.9-0.6,1.5-0.6,1.8c0,0.3,0.1,0.6,0.4,0.9c0.3,0.3,0.7,0.5,1.4,0.6c0.4,0.1,1.5,0.1,3.4,0.1v5.8h-19.5v-5.8
		c1.2,0,2.2-0.1,2.7-0.3c0.6-0.2,1-0.5,1.4-0.8c0.4-0.4,0.8-1,1.2-2L202.4,53.1L202.4,53.1z M200.9,75.7h10.1L206,64.2L200.9,75.7
		L200.9,75.7z M237.2,53.1h31c2,0,4.2,0.2,6.5,0.5c2.4,0.3,4.5,1,6.4,2c1.9,1,3.4,2.3,4.4,3.9c1.1,1.6,1.6,3.3,1.6,5.3
		c0,3.2-1.4,5.8-4.1,7.7c-2.7,2-6,3.3-9.7,3.9l10.3,10l0.4,0.5c0.7,0.7,1.3,1.2,1.8,1.5c0.5,0.3,1.1,0.6,1.6,0.7
		c0.6,0.1,1.3,0.2,2.3,0.2h2.2v5.8h-16.1L259.9,77h-4.2v8.4c0,1.4,0.1,2.4,0.3,2.8c0.2,0.4,0.5,0.7,0.9,0.9c0.4,0.2,1.3,0.3,2.5,0.3
		h2.3v5.8h-24.6v-5.8h2.2c1.2,0,2-0.1,2.5-0.3c0.5-0.2,0.9-0.5,1.1-0.9c0.1-0.2,0.2-1,0.2-2.3V62.2c0-0.9-0.1-1.6-0.3-2
		c-0.2-0.4-0.5-0.6-0.9-0.8c-0.6-0.2-1.2-0.3-2-0.3l-1,0h-1.9V53.1L237.2,53.1z M255.8,60v10.9h7.5c2.9,0,5.1-0.2,6.6-0.7
		c1.5-0.5,2.5-1.1,3.3-1.9c0.7-0.8,1.1-1.9,1.1-3.1c0-1.1-0.3-2.1-1-2.8c-0.7-0.8-1.7-1.4-2.9-1.8c-1.3-0.4-3.3-0.6-6.2-0.6H255.8z"
		/>
	<g id="XMLID_1408_">
		<path id="XMLID_1430_" class="st2" d="M34.3,50.4h11.3l15.1,32c0.8,1.7,1.5,2.8,2.2,3.2c0.6,0.4,1.8,0.6,3.5,0.6v5.7H42.6v-5.7
			l1.4,0c1.3,0,2.3-0.2,2.8-0.4c0.5-0.3,0.8-0.6,0.8-1.1c0-0.4-0.2-1.1-0.7-2.2l-1.5-3.8H30.1l-1.9,4.2c-0.4,0.9-0.6,1.5-0.6,1.8
			c0,0.3,0.1,0.6,0.4,0.9c0.3,0.3,0.7,0.4,1.4,0.6c0.4,0.1,1.5,0.1,3.4,0.1v5.7H13.4v-5.7c1.2,0,2.2-0.1,2.7-0.3
			c0.6-0.2,1-0.4,1.4-0.8c0.4-0.4,0.8-1,1.2-2L34.3,50.4L34.3,50.4z M32.7,72.7h10.1l-4.9-11.4L32.7,72.7L32.7,72.7z M69.2,50.4
			h24.5v5.7h-1.6c-1.6,0-2.5,0.1-2.9,0.2c-0.6,0.2-1,0.5-1.2,0.9c-0.3,0.4-0.4,1.1-0.4,2.2v11l15.7-12c0.7-0.5,1.1-0.9,1.3-1.1
			c0.1-0.2,0.2-0.4,0.2-0.5c0-0.3-0.1-0.5-0.4-0.6c-0.3-0.1-1-0.2-2.1-0.2h-2v-5.7h22.7v5.7h-0.8c-1.1,0-1.8,0-2.2,0.1
			c-0.4,0.1-0.9,0.3-1.5,0.6c-0.6,0.3-1.4,0.8-2.3,1.5L104,67l14.5,16.2c1.3,1.4,2.2,2.2,2.7,2.5c0.8,0.4,1.9,0.5,3.3,0.5h1v5.7
			h-25.4v-5.7h1c1.9,0,3-0.1,3.4-0.2c0.4-0.1,0.6-0.3,0.6-0.5c0-0.2-0.4-0.8-1.1-1.7l-8.8-10.4l-7.6,5.4v4.2c0,1,0.1,1.7,0.4,2.1
			c0.2,0.4,0.6,0.7,1,0.9c0.4,0.2,1.3,0.3,2.7,0.3h2.1v5.7H69.2v-5.7H71c1.4,0,2.4-0.1,2.9-0.3c0.5-0.2,0.8-0.5,1-0.9
			c0.2-0.3,0.3-1.1,0.3-2.4V59.9c0-1.2-0.1-2.1-0.3-2.5c-0.2-0.4-0.6-0.7-1-0.9c-0.5-0.2-1.4-0.3-2.6-0.3h-2.1V50.4L69.2,50.4z
			 M128.3,56.2v-5.7h28.6c4.4,0,7.8,0.4,10.3,1.3c2.5,0.8,4.4,2.1,5.8,3.6c1.4,1.6,2,3.3,2,5.2c0,1.4-0.3,2.7-1.1,3.9
			c-0.7,1.2-1.7,2.3-3.1,3.3c-1.3,0.9-3.1,1.7-5.3,2.3c2.3,0.5,4.2,1,5.4,1.6c1.8,0.8,3.2,2,4.3,3.5c1.1,1.5,1.6,3.2,1.6,5
			c0,2.2-0.8,4.2-2.4,6.1c-1.6,1.9-3.9,3.3-6.8,4.2c-2.9,1-7.2,1.5-12.9,1.5h-26.4v-5.7h2c1.3,0,2.2-0.1,2.7-0.3
			c0.5-0.2,0.8-0.5,1-0.8c0.2-0.4,0.3-1.1,0.3-2.3V59.6c0-1.2-0.1-2-0.3-2.3c-0.2-0.3-0.5-0.6-1-0.8c-0.5-0.2-1.4-0.3-2.7-0.3H128.3
			L128.3,56.2z M146.8,67.2h5.5c2.9,0,5-0.2,6.4-0.6c1.4-0.4,2.4-1,3.1-1.8c0.7-0.8,1-1.7,1-2.8c0-1.1-0.3-2-1-2.8
			c-0.7-0.8-1.6-1.3-2.9-1.6c-1.3-0.3-3.5-0.5-6.7-0.5h-5.5V67.2L146.8,67.2z M146.8,73.3v9c0,1.3,0.1,2,0.2,2.2
			c0.1,0.3,0.3,0.5,0.6,0.6c0.3,0.1,1,0.2,2.3,0.2h3.7c2.1,0,3.9-0.2,5.3-0.5c1.4-0.3,2.6-1,3.6-2c1-1,1.5-2.3,1.5-3.7
			c0-1.2-0.3-2.3-1-3.1c-0.7-0.9-1.7-1.5-3.1-1.9c-1.4-0.4-3.5-0.6-6.4-0.6H146.8L146.8,73.3z M199.6,50.4h11.3l15.1,32
			c0.8,1.7,1.5,2.8,2.2,3.2c0.6,0.4,1.8,0.6,3.5,0.6v5.7h-23.8v-5.7l1.4,0c1.3,0,2.3-0.2,2.8-0.4c0.5-0.3,0.8-0.6,0.8-1.1
			c0-0.4-0.2-1.1-0.7-2.2l-1.5-3.8h-15.3l-1.9,4.2c-0.4,0.9-0.6,1.5-0.6,1.8c0,0.3,0.1,0.6,0.4,0.9c0.3,0.3,0.7,0.4,1.4,0.6
			c0.4,0.1,1.5,0.1,3.4,0.1v5.7h-19.5v-5.7c1.2,0,2.2-0.1,2.7-0.3c0.6-0.2,1-0.4,1.4-0.8c0.4-0.4,0.8-1,1.2-2L199.6,50.4L199.6,50.4
			z M198.1,72.7h10.1l-4.9-11.4L198.1,72.7L198.1,72.7z M234.5,50.4h31c2,0,4.2,0.2,6.5,0.4c2.4,0.3,4.5,1,6.4,2
			c1.9,1,3.4,2.3,4.4,3.8c1.1,1.6,1.6,3.3,1.6,5.2c0,3.1-1.4,5.7-4.1,7.7c-2.7,2-6,3.2-9.7,3.8l10.3,9.9l0.4,0.4
			c0.7,0.7,1.3,1.2,1.8,1.5c0.5,0.3,1.1,0.6,1.6,0.7c0.6,0.1,1.3,0.2,2.3,0.2h2.2v5.7h-16.1L257.2,74H253v8.3c0,1.4,0.1,2.3,0.3,2.7
			c0.2,0.4,0.5,0.7,0.9,0.9c0.4,0.2,1.3,0.3,2.5,0.3h2.3v5.7h-24.6v-5.7h2.2c1.2,0,2-0.1,2.5-0.3c0.5-0.2,0.9-0.5,1.1-0.9
			c0.1-0.2,0.2-1,0.2-2.2V59.3c0-0.9-0.1-1.6-0.3-1.9c-0.2-0.4-0.5-0.6-0.9-0.8c-0.6-0.2-1.2-0.3-2-0.3l-1,0h-1.9V50.4L234.5,50.4z
			 M253,57.2V68h7.5c2.9,0,5.1-0.2,6.6-0.7c1.5-0.4,2.5-1.1,3.3-1.9c0.7-0.8,1.1-1.8,1.1-3c0-1.1-0.3-2-1-2.8
			c-0.7-0.8-1.7-1.4-2.9-1.7c-1.3-0.4-3.3-0.6-6.2-0.6H253z"/>
		<path id="XMLID_1409_" class="st3" d="M290.3,92.8h-17.4l-16.1-17.9h-2.9v7.4c0,1.8,0.2,2.3,0.2,2.3c0.1,0.2,0.3,0.4,0.5,0.5
			c0.1,0,0.6,0.2,2.2,0.2h3.2v7.5h-26.3v-7.5h3.1c1.4,0,1.9-0.2,2.2-0.2c0.3-0.1,0.5-0.3,0.6-0.5c0-0.1,0.1-0.5,0.1-1.8V59.3
			c0-1.1-0.1-1.5-0.2-1.6c-0.1-0.2-0.2-0.2-0.3-0.3l-0.1,0c-0.5-0.2-1-0.3-1.7-0.3l-1,0l-2.8,0v-7.7h31.9c2,0,4.2,0.2,6.7,0.5
			c2.4,0.3,4.7,1,6.7,2.1c2,1.1,3.6,2.5,4.8,4.1c1.2,1.7,1.7,3.6,1.7,5.7c0,3.4-1.5,6.3-4.5,8.4c-2.4,1.7-5.2,2.9-8.4,3.7l9.1,8.7
			l0.5,0.5c0.6,0.6,1.2,1.1,1.7,1.4c0.5,0.3,0.9,0.5,1.4,0.6c0.5,0.1,1.2,0.2,2.1,0.2h3V92.8z M273.7,91h14.8v-4h-1.3
			c-1.1,0-1.9-0.1-2.5-0.2c-0.6-0.2-1.3-0.4-1.9-0.8c-0.6-0.4-1.3-0.9-2-1.6l-0.4-0.5l-11.6-11.1l1.7-0.3c3.6-0.6,6.7-1.8,9.3-3.7
			c2.5-1.8,3.7-4.1,3.7-6.9c0-1.8-0.5-3.3-1.4-4.7c-1-1.4-2.4-2.6-4.1-3.6c-1.8-1-3.9-1.6-6.1-1.9c-2.3-0.3-4.5-0.4-6.4-0.4h-30.1
			v4.2h1l1,0c0,0,0,0,0,0c0.9,0,1.6,0.1,2.3,0.4c0.6,0.2,1.1,0.6,1.4,1.2c0.2,0.5,0.4,1.2,0.4,2.3v23.3c0,1.7-0.1,2.3-0.3,2.6
			c-0.3,0.6-0.8,1.1-1.5,1.3c-0.6,0.3-1.6,0.4-2.9,0.4h-1.3v4h22.8v-4h-1.4c-1.4,0-2.3-0.1-2.9-0.4c-0.6-0.3-1.1-0.7-1.4-1.3
			c-0.2-0.4-0.4-1-0.4-3.1v-9.2h5.5L273.7,91z M232.6,92.8h-25.5v-7.5l2.3,0c1.6,0,2.2-0.2,2.4-0.3c0.2-0.1,0.3-0.2,0.3-0.3
			c0,0,0-0.4-0.6-1.9l-1.3-3.2H196l-1.6,3.7c-0.5,1.1-0.5,1.4-0.5,1.4c0,0,0,0.1,0.1,0.2c0.1,0.1,0.3,0.2,0.9,0.4
			c0.2,0,0.8,0.1,3.2,0.1h0.9v7.5h-21.2v-7.5h0.9c1.4,0,2.1-0.1,2.5-0.2c0.4-0.1,0.8-0.3,1.1-0.6c0.2-0.2,0.5-0.6,1.1-1.7l15.8-33.2
			h12.4l15.3,32.5c1,2,1.6,2.6,1.8,2.8c0.3,0.2,1.1,0.5,3,0.4l0.9,0V92.8z M208.8,91h22v-4c-1.4-0.1-2.4-0.3-3.1-0.7
			c-0.8-0.5-1.6-1.6-2.5-3.5l-14.9-31.5h-10.2l-15.3,32.2c-0.5,1.1-1,1.8-1.4,2.3c-0.5,0.4-1.1,0.8-1.8,1c-0.5,0.2-1.2,0.3-2.1,0.3
			v4h17.7v-4c-1.9,0-2.4-0.1-2.7-0.1c-0.8-0.2-1.4-0.4-1.8-0.8c-0.4-0.4-0.7-0.9-0.7-1.5c0-0.3,0.1-0.8,0.6-2.1l2.1-4.7h16.5
			l1.7,4.3c0.7,1.6,0.7,2.2,0.7,2.5c0,0.5-0.2,1.3-1.3,1.8c-0.7,0.4-1.7,0.5-3.2,0.5l-0.6,0V91z M154.7,92.8h-27.3v-7.5h2.9
			c1.6,0,2.2-0.2,2.4-0.2c0.3-0.1,0.4-0.2,0.5-0.4c0,0,0.2-0.4,0.2-1.9V59.6c0-1.5-0.2-1.9-0.2-1.9c-0.1-0.2-0.3-0.3-0.6-0.4
			c-0.2-0.1-0.8-0.2-2.3-0.2h-2.9v-7.5h29.5c4.4,0,8,0.4,10.6,1.3c2.6,0.9,4.7,2.2,6.1,3.9c1.5,1.7,2.2,3.7,2.2,5.8
			c0,1.5-0.4,3-1.2,4.3c-0.8,1.3-1.9,2.5-3.3,3.5c-0.8,0.5-1.7,1-2.7,1.5c1.1,0.3,2,0.6,2.7,1c1.9,0.9,3.5,2.2,4.6,3.8
			c1.2,1.6,1.7,3.5,1.7,5.5c0,2.4-0.9,4.6-2.6,6.7c-1.7,2-4.1,3.5-7.2,4.5C164.9,92.3,160.4,92.8,154.7,92.8z M129.2,91h25.5
			c5.6,0,9.8-0.5,12.6-1.4c2.8-0.9,5-2.2,6.4-4c1.5-1.7,2.2-3.5,2.2-5.5c0-1.7-0.5-3.1-1.4-4.5c-1-1.4-2.3-2.4-3.9-3.2
			c-1.2-0.6-2.9-1.1-5.2-1.6l-0.1-1.7c2.1-0.6,3.8-1.3,5-2.2c1.2-0.9,2.2-1.9,2.8-3c0.6-1.1,0.9-2.2,0.9-3.5c0-1.7-0.6-3.2-1.8-4.6
			c-1.2-1.4-3-2.6-5.4-3.4c-2.4-0.8-5.8-1.2-10-1.2h-27.7v4h1.1c1.5,0,2.4,0.1,3,0.4c0.6,0.3,1.1,0.7,1.4,1.2
			c0.2,0.3,0.4,0.9,0.4,2.8v23.1c0,1.4-0.1,2.3-0.4,2.8c-0.3,0.5-0.8,0.9-1.4,1.2c-0.6,0.2-1.6,0.4-3,0.4h-1.1V91z M126.4,92.8H99.3
			v-7.5h1.9c1.8,0,2.5-0.1,2.9-0.1c-0.1-0.2-0.4-0.5-0.7-0.9l-8.3-9.8l-6.6,4.7v3.7c0,1.2,0.2,1.6,0.2,1.7c0.1,0.2,0.3,0.4,0.6,0.5
			c0.2,0.1,0.7,0.2,2.4,0.2h2.9v7.5H68.3v-7.5H71c1.7,0,2.4-0.2,2.5-0.2c0.3-0.1,0.4-0.3,0.6-0.5l0-0.1c0,0,0.2-0.4,0.2-2V59.9
			c0-1.5-0.2-2-0.2-2.1c-0.1-0.2-0.3-0.4-0.6-0.5c-0.2-0.1-0.7-0.2-2.2-0.2h-2.9v-7.5h26.3V57h-2.5c-2,0-2.5,0.1-2.6,0.1
			c-0.4,0.2-0.7,0.3-0.8,0.6c-0.1,0.1-0.2,0.5-0.2,1.8v9.2l14.3-10.9c0.5-0.4,0.8-0.6,0.9-0.8c-0.2,0-0.7-0.1-1.4-0.1h-2.9v-7.5
			h24.5V57h-1.6c-1.2,0-1.8,0.1-2,0.1c-0.3,0.1-0.7,0.2-1.3,0.5c-0.5,0.3-1.3,0.7-2.2,1.4l-11.3,8.1l13.8,15.4
			c1.5,1.7,2.2,2.1,2.5,2.3c0.7,0.3,1.7,0.5,3,0.5h1.9V92.8z M101.1,91h23.6v-4h-0.1c-1.6,0-2.8-0.2-3.7-0.6c-0.4-0.2-1.2-0.7-3-2.7
			l-15.1-16.9l12.9-9.3c1-0.7,1.8-1.2,2.4-1.5c0.7-0.4,1.3-0.6,1.7-0.7c0.4-0.1,1.1-0.1,2.2-0.1v-4h-21v4h1.1c1.6,0,2.2,0.1,2.5,0.3
			c0.6,0.3,0.9,0.8,0.9,1.4c0,0.3-0.1,0.6-0.4,1l0,0c-0.1,0.1-0.3,0.4-1.4,1.2L86.7,72.3V59.5c0-1.3,0.2-2.2,0.5-2.7
			c0.3-0.5,0.9-1,1.7-1.3c0.3-0.1,1-0.3,3.2-0.3h0.7v-4H70.1v4h1.2c1.4,0,2.3,0.1,2.9,0.4c0.7,0.3,1.2,0.7,1.5,1.3
			c0.3,0.6,0.4,1.5,0.4,2.9v22.7c0,1.9-0.2,2.5-0.4,2.9c-0.3,0.6-0.8,1-1.5,1.3C73.6,86.9,72.5,87,71,87h-1v4h22.7v-4h-1.2
			c-1.4,0-2.4-0.1-3-0.3c-0.6-0.2-1.1-0.6-1.5-1.2c-0.3-0.6-0.5-1.4-0.5-2.6v-4.6l8.7-6.1l9.4,11c1.1,1.3,1.3,1.8,1.3,2.3
			c0,0.4-0.2,1-1.2,1.4c-0.4,0.1-1.1,0.3-3.7,0.3h-0.1V91z M67.3,92.8H41.7v-7.5l2.3,0c1.6,0,2.2-0.2,2.4-0.3
			c0.2-0.1,0.3-0.2,0.3-0.3c0,0,0-0.4-0.6-1.9l-1.3-3.2H30.7l-1.6,3.7c-0.5,1.1-0.5,1.4-0.5,1.4c0,0,0,0.1,0.1,0.2
			c0.1,0.1,0.3,0.2,0.9,0.4c0.2,0,0.8,0.1,3.2,0.1h0.9v7.5H12.5v-7.5h0.9c1.4,0,2.1-0.1,2.5-0.2c0.4-0.1,0.8-0.3,1.1-0.6
			c0.2-0.2,0.5-0.6,1.1-1.7l15.8-33.2h12.4l15.3,32.5c1,2,1.6,2.6,1.8,2.8c0.3,0.2,1,0.5,3,0.4l0.9,0V92.8z M43.5,91h22v-4
			c-1.4-0.1-2.4-0.3-3.1-0.7c-0.8-0.5-1.6-1.6-2.5-3.5L45,51.3H34.9L19.6,83.5c-0.5,1.1-1,1.8-1.4,2.3c-0.5,0.4-1.1,0.8-1.8,1
			c-0.5,0.2-1.2,0.3-2.1,0.3v4h17.7v-4c-1.9,0-2.4-0.1-2.7-0.1c-0.8-0.2-1.4-0.4-1.8-0.8c-0.4-0.4-0.7-0.9-0.7-1.5
			c0-0.3,0.1-0.8,0.6-2.1l2.1-4.7H46l1.7,4.3c0.7,1.6,0.7,2.2,0.7,2.5c0,0.5-0.2,1.3-1.3,1.8C46.5,86.8,45.5,87,44,87l-0.6,0V91z
			 M153.4,86.2h-3.7c-1.8,0-2.3-0.1-2.6-0.2c-0.5-0.2-0.9-0.6-1.1-1.1c-0.1-0.2-0.2-0.6-0.2-2.6v-9.9h7.4c3,0,5.2,0.2,6.6,0.7
			c1.6,0.5,2.8,1.2,3.6,2.2c0.8,1,1.2,2.2,1.2,3.7c0,1.7-0.6,3.1-1.7,4.3c-1.1,1.2-2.5,1.9-4,2.3C157.5,86,155.7,86.2,153.4,86.2z
			 M147.8,84.3c0,0,0.4,0.1,1.9,0.1h3.7c2.1,0,3.8-0.2,5.1-0.5c1.2-0.3,2.3-0.9,3.1-1.8c0.8-0.9,1.2-1.9,1.2-3.1
			c0-1-0.3-1.9-0.8-2.6c-0.6-0.7-1.5-1.3-2.7-1.7c-1.3-0.4-3.3-0.6-6.1-0.6h-5.6v8.1c0,1.4,0.1,1.8,0.1,1.9
			C147.8,84.3,147.8,84.3,147.8,84.3L147.8,84.3z M209.5,73.6h-12.8l6.5-14.5L209.5,73.6z M199.5,71.9h7.3l-3.6-8.4L199.5,71.9z
			 M44.1,73.6H31.4l6.5-14.5L44.1,73.6z M34.1,71.9h7.3l-3.6-8.4L34.1,71.9z M260.4,68.8h-8.3V56.3h9.2c3,0,5.1,0.2,6.4,0.6
			c1.4,0.4,2.6,1.1,3.3,2c0.8,0.9,1.2,2.1,1.2,3.4c0,1.4-0.4,2.6-1.3,3.6c-0.8,0.9-2.1,1.7-3.7,2.2
			C265.7,68.6,263.5,68.8,260.4,68.8z M253.9,67.1h6.6c2.8,0,5-0.2,6.3-0.6c1.3-0.4,2.3-1,2.9-1.7c0.6-0.7,0.9-1.5,0.9-2.5
			c0-0.9-0.3-1.6-0.8-2.2c-0.6-0.7-1.4-1.1-2.5-1.5c-1.2-0.4-3.2-0.5-5.9-0.5h-7.4V67.1z M152.3,68.1h-6.4V56.2h6.4
			c3.3,0,5.6,0.2,6.9,0.5c1.4,0.4,2.5,1,3.3,1.9c0.8,0.9,1.2,2.1,1.2,3.4c0,1.3-0.4,2.4-1.3,3.4c-0.8,0.9-2,1.6-3.5,2.1
			C157.4,67.9,155.3,68.1,152.3,68.1z M147.6,66.3h4.6c2.8,0,4.9-0.2,6.2-0.6c1.2-0.3,2.1-0.9,2.7-1.5c0.6-0.6,0.8-1.4,0.8-2.2
			c0-0.9-0.3-1.6-0.8-2.2c-0.5-0.6-1.4-1.1-2.4-1.4c-1.2-0.3-3.3-0.5-6.5-0.5h-4.6V66.3z"/>
	</g>
	<g id="XMLID_1396_">
		<g id="XMLID_1403_">
			
				<ellipse id="XMLID_1407_" transform="matrix(3.733139e-03 -1 1 3.733139e-03 124.5847 180.2452)" class="st2" cx="152.8" cy="27.6" rx="17.6" ry="17.6"/>
			<path id="XMLID_1404_" class="st4" d="M152.8,46.1c-10.2,0-18.5-8.3-18.5-18.5c0-10.2,8.3-18.5,18.5-18.5
				c10.2,0,18.5,8.3,18.5,18.5C171.2,37.8,162.9,46.1,152.8,46.1z M152.8,10.9c-9.2,0-16.7,7.5-16.7,16.7c0,9.2,7.5,16.7,16.7,16.7
				c9.2,0,16.7-7.5,16.7-16.7C169.5,18.4,162,10.9,152.8,10.9z"/>
		</g>
		<path id="XMLID_1402_" class="st5" d="M142,21.5c2.9,1.5,5.8,3,8.7,4.5c1.1,0.4,1.1,1.3,1,2.3c0,3.9,0.1,7.8,0.1,11.7
			c0.1,0.8-0.3,1.1-1.2,1c-0.5-0.1-1.1-0.2-1.6-0.4c-0.3-0.2-0.5-0.5-0.5-1.1c0-2-0.1-4-0.1-5.9c-0.2-0.2-0.3-0.4-0.5-0.6
			c-1.5-0.6-3-1.2-4.5-1.8c0.6,1.7,1.6,3.1,2.8,4.2c0.4,0.3,0.6,0.5,0.2,1.1c-0.3,0.5-0.6,1-0.9,1.5c-0.5,0.6-1.1,0.5-1.8-0.3
			c-6-5.6-5-12.2-3.3-15.9C140.7,21.3,141.3,21.2,142,21.5z"/>
		<polygon id="XMLID_1401_" class="st2" points="142.9,25.5 148.2,27.9 148.3,30 142.4,27.6 		"/>
		<path id="XMLID_1400_" class="st5" d="M153.9,27.2c0.1,4.2,0.1,8.5,0.2,12.7c0.2,0.9,0.7,1.3,1.5,0.9c6.7-1.2,12.8-10.7,9.3-12.4
			c0.8-0.4,1.4-1,1.3-2.3c-0.1-1.7-0.5-3.3-1.5-4.9c-0.3-0.5-0.8-0.6-1.5-0.2c-3,1.7-5.9,3.3-8.9,5C154.1,26.4,154,26.8,153.9,27.2z
			"/>
		<path id="XMLID_1399_" class="st2" d="M157.2,27.9c1.8-0.9,3.6-1.8,5.3-2.8c0.3,0.7,0.3,1.4,0.4,2.1l-5.7,2.6L157.2,27.9z"/>
		<path id="XMLID_1398_" class="st2" d="M157.3,33.7c-0.1-0.3,0-0.6,0.2-0.7c1.5-0.7,2.9-1.3,4.4-2c0.2,0,0.2,0.1,0.2,0.3
			c-0.9,2.2-2.4,3.9-4.4,5.2c-0.1-0.1-0.3-0.2-0.4-0.3C157.2,35.4,157.3,34.6,157.3,33.7z"/>
		<path id="XMLID_1397_" class="st6" d="M152,24c-0.1-0.1-0.2-0.3-0.3-0.4c-0.9-0.6-1.8-1.2-2.4-1.8c-0.5-0.6-0.9-1.4-1.3-2.4
			c-0.2-0.4-0.4-0.7-0.6-1c1-0.3,2-0.2,2.9,0.5c0.1-2.1,0.9-3.7,2.1-5c1.1,1,2,2.2,2.5,4.3c0.7-0.5,1.5-0.6,2.3-0.7
			c0.2,0,0.2,0.2,0.2,0.4c-0.2,0.7-0.4,1.3-0.7,2c-0.4,1.1-1.2,1.9-2.2,2.6c-0.8,0.4-1,0.7-1.1,1.1c-0.1,0.3-0.3,0.7-0.4,1
			c-0.3,0.2-0.5,0.2-0.8,0C152.2,24.4,152.1,24.2,152,24z"/>
	</g>
	<path id="XMLID_1373_" class="st2" d="M12.3,106.4V99h2.3c0.9,0,1.4,0,1.7,0.1c0.4,0.1,0.8,0.4,1,0.7c0.3,0.4,0.4,0.9,0.4,1.4
		c0,0.5-0.1,1-0.4,1.3c-0.2,0.4-0.5,0.6-0.9,0.8c-0.4,0.1-1,0.2-1.8,0.2h-0.9v2.8H12.3L12.3,106.4z M13.7,100.3v2.1h0.8
		c0.5,0,0.9,0,1.1-0.1c0.2-0.1,0.3-0.2,0.5-0.3c0.1-0.2,0.2-0.4,0.2-0.6c0-0.2-0.1-0.5-0.2-0.6c-0.1-0.2-0.3-0.3-0.5-0.3
		c-0.2-0.1-0.6-0.1-1.2-0.1H13.7L13.7,100.3z M28.1,106.4V99h3c0.8,0,1.3,0.1,1.7,0.2c0.3,0.1,0.6,0.4,0.8,0.7
		c0.2,0.3,0.3,0.7,0.3,1.2c0,0.6-0.2,1-0.5,1.4c-0.3,0.4-0.8,0.6-1.4,0.7c0.3,0.2,0.6,0.4,0.8,0.6c0.2,0.2,0.5,0.6,0.8,1.2l0.9,1.4
		h-1.7l-1-1.6c-0.4-0.6-0.6-0.9-0.8-1.1c-0.1-0.1-0.3-0.2-0.4-0.3c-0.1-0.1-0.4-0.1-0.7-0.1h-0.3v3.1H28.1L28.1,106.4z M29.6,102.2
		h1.1c0.7,0,1.1,0,1.2-0.1c0.2,0,0.3-0.1,0.4-0.3c0.1-0.1,0.2-0.3,0.2-0.6c0-0.2-0.1-0.4-0.2-0.6c-0.1-0.1-0.3-0.2-0.5-0.3
		c-0.1,0-0.5-0.1-1.2-0.1h-1.1V102.2L29.6,102.2z M44.5,106.4V99h5.3v1.2H46v1.6h3.6v1.2H46v2h4v1.2H44.5L44.5,106.4z M60.4,106.4
		V99h2.2l1.3,5l1.3-5h2.2v7.4h-1.3v-5.8l-1.4,5.8h-1.4l-1.4-5.8v5.8H60.4L60.4,106.4z M77.8,106.4V99h1.4v7.4H77.8L77.8,106.4z
		 M89.8,99h1.4v4c0,0.6,0,1,0.1,1.2c0.1,0.3,0.2,0.6,0.5,0.8c0.2,0.2,0.6,0.3,0.9,0.3c0.3,0,0.6-0.1,0.8-0.2
		c0.2-0.1,0.4-0.3,0.4-0.5c0.1-0.2,0.1-0.7,0.1-1.4V99h1.4v3.9c0,1-0.1,1.7-0.2,2.1c-0.1,0.4-0.4,0.8-0.8,1.1
		c-0.4,0.3-1,0.4-1.7,0.4c-0.7,0-1.3-0.1-1.7-0.3c-0.4-0.2-0.7-0.5-0.9-1c-0.2-0.4-0.3-1.2-0.3-2.3V99L89.8,99z M106.2,106.4V99h2.2
		l1.3,5l1.3-5h2.2v7.4h-1.3v-5.8l-1.4,5.8H109l-1.4-5.8v5.8H106.2L106.2,106.4z M141.8,105.5c0.4,0.3,0.7,0.5,1.2,0.6l-0.5,1.1
		c-0.2-0.1-0.4-0.2-0.6-0.3c0,0-0.4-0.2-1-0.7c-0.5,0.2-1,0.3-1.6,0.3c-1,0-1.9-0.3-2.5-1c-0.6-0.6-1-1.6-1-2.8c0-1.2,0.3-2.2,1-2.8
		c0.6-0.7,1.5-1,2.5-1c1,0,1.9,0.3,2.5,1c0.6,0.7,1,1.6,1,2.8c0,0.6-0.1,1.1-0.2,1.5C142.3,104.7,142.1,105.1,141.8,105.5
		L141.8,105.5z M140.6,104.6c0.4-0.4,0.6-1.1,0.6-1.9c0-0.9-0.2-1.5-0.6-1.9c-0.4-0.4-0.8-0.6-1.4-0.6c-0.6,0-1,0.2-1.4,0.6
		c-0.4,0.4-0.6,1.1-0.6,1.9c0,0.9,0.2,1.5,0.6,1.9c0.4,0.4,0.8,0.6,1.4,0.6c0.2,0,0.4,0,0.6-0.1c-0.3-0.2-0.6-0.4-0.9-0.5l0.4-0.8
		C139.8,104,140.2,104.3,140.6,104.6L140.6,104.6z M153,99h1.4v4c0,0.6,0,1,0.1,1.2c0.1,0.3,0.2,0.6,0.5,0.8
		c0.2,0.2,0.6,0.3,0.9,0.3c0.3,0,0.6-0.1,0.8-0.2c0.2-0.1,0.4-0.3,0.4-0.5c0.1-0.2,0.1-0.7,0.1-1.4V99h1.4v3.9c0,1-0.1,1.7-0.2,2.1
		c-0.1,0.4-0.4,0.8-0.8,1.1c-0.4,0.3-1,0.4-1.7,0.4c-0.7,0-1.3-0.1-1.7-0.3c-0.4-0.2-0.7-0.5-0.9-1c-0.2-0.4-0.3-1.2-0.3-2.3V99
		L153,99z M175.8,106.4h-1.6l-0.6-1.7h-2.8l-0.6,1.7h-1.5l2.8-7.4h1.5L175.8,106.4L175.8,106.4z M173.2,103.5l-1-2.7l-1,2.7H173.2
		L173.2,103.5z M185.9,106.4v-7.3h1.4v6.1h3.6v1.2H185.9L185.9,106.4z M201.1,106.4V99h1.4v7.4H201.1L201.1,106.4z M214.7,106.4
		v-6.1h-2.1V99h5.7v1.2h-2.1v6.1H214.7L214.7,106.4z M230.3,106.4v-3.1l-2.6-4.3h1.7l1.7,2.9l1.6-2.9h1.7l-2.6,4.3v3.1H230.3
		L230.3,106.4z M258,106.4v-6.1h-2.1V99h5.7v1.2h-2.1v6.1H258L258,106.4z M271.7,106.4V99h5.3v1.2h-3.9v1.6h3.6v1.2h-3.6v2h4v1.2
		H271.7L271.7,106.4z M293.9,106.4h-1.6l-0.6-1.7h-2.8l-0.6,1.7h-1.5l2.8-7.4h1.5L293.9,106.4L293.9,106.4z M291.3,103.5l-1-2.7
		l-1,2.7H291.3z"/>
	<g id="XMLID_1364_">
		<g id="XMLID_1368_">
			<path id="XMLID_1372_" class="st2" d="M283.7,40.9c2.4,0,4.4,1.9,4.4,4.2c0,2.3-2,4.2-4.4,4.2c-2.4,0-4.4-1.9-4.4-4.2
				C279.3,42.8,281.3,40.9,283.7,40.9z"/>
			<path id="XMLID_1369_" class="st3" d="M283.7,49.7c-2.6,0-4.7-2.1-4.7-4.6s2.1-4.6,4.7-4.6c2.6,0,4.7,2.1,4.7,4.6
				S286.3,49.7,283.7,49.7z M283.7,41.3c-2.2,0-4,1.7-4,3.8c0,2.1,1.8,3.8,4,3.8s4-1.7,4-3.8C287.7,43,285.9,41.3,283.7,41.3z"/>
		</g>
		<path id="XMLID_1365_" class="st7" d="M281.5,47.7v-5.3h2.4c0.5,0,0.9,0,1.1,0.1c0.3,0.1,0.5,0.3,0.6,0.5c0.2,0.2,0.2,0.5,0.2,0.8
			c0,0.4-0.1,0.7-0.4,1c-0.3,0.3-0.6,0.4-1.2,0.5c0.2,0.1,0.3,0.2,0.4,0.3c0.2,0.2,0.4,0.4,0.6,0.7l1,1.5h-0.9l-0.7-1.1
			c-0.2-0.3-0.4-0.6-0.5-0.7c-0.1-0.2-0.3-0.3-0.4-0.4c-0.1-0.1-0.2-0.1-0.3-0.1c-0.1,0-0.2,0-0.4,0h-0.8v2.4H281.5L281.5,47.7z
			 M282.2,44.8h1.6c0.3,0,0.6,0,0.8-0.1c0.2-0.1,0.3-0.2,0.4-0.3c0.1-0.1,0.1-0.3,0.1-0.5c0-0.3-0.1-0.5-0.3-0.6
			c-0.2-0.2-0.5-0.2-0.9-0.2h-1.7V44.8z"/>
	</g>
</g>
<g id="XMLID_1357_">
	<path id="XMLID_1362_" class="st0" d="M257.1,142.7c0.1,0,0.3,0.2,0.6,0.2c0.1,0,0.3,0,0.4-0.1h0.2l0.1-0.2
		c0.1-0.2,0.3-0.3,0.6-0.4c0.4-0.1,0.7-0.3,0.8-0.6l0.5,0.3v-0.7c0,0,0-0.1,0.1-0.2c0.2-0.1,0.3-0.3,0.3-0.4c0.1,0,0.1,0,0.1-0.1
		c0,0,0.1-0.1,0.1-0.1l0.3,0.2v-0.7c0.1-0.1,0.1-0.2,0.1-0.3c0.4-0.3,0.7-0.8,0.9-1.5c0.2-0.8,0-1.5-0.5-2.1l-0.1-0.2h-0.2
		c-0.1-0.1-0.2-0.1-0.3-0.1c-0.4-0.4-0.9-0.5-1.5-0.3c-0.5,0.2-1,0.5-1.5,0.9c-0.5,0.4-0.9,0.9-1.3,1.4c-0.4,0.5-0.6,0.9-0.5,1.2
		c-0.1,0.2-0.1,0.5-0.2,0.7c-0.1,0.4-0.2,0.8-0.2,1.1c0,0.4,0,0.8,0.2,1.1C256.4,142.3,256.7,142.6,257.1,142.7z"/>
	<path id="XMLID_1361_" class="st0" d="M282.5,134c0.3-0.9,0.6-1.8,0.9-2.7c0.3-0.8,0.8-1.6,1.4-2.4l0.1-0.1
		c0.6-1.3,1.2-2.8,1.8-4.3c0.5-1.5,1.1-3,1.7-4.6c0.1-0.5,0.3-1,0.4-1.3c0.2-0.4,0.4-0.9,0.5-1.4c0.2-0.3,0.3-0.6,0.5-1
		c0.2-0.4,0.3-0.9,0.4-1.3c0.1-0.6,0.1-1-0.1-1.3c-0.1-0.2-0.3-0.4-0.6-0.7c-0.2-0.5-0.4-0.8-0.6-1.1c-0.3-0.3-0.7-0.5-1.2-0.7
		c-0.5-0.1-1.2-0.1-2,0.2c-0.9,0.3-1.4,0.7-1.6,1.2c-0.1,0.8-0.3,1.7-0.6,2.5c-0.3,1.1-0.7,2.3-1.1,3.5c-0.4,1.2-0.8,2.4-1.3,3.6
		c-0.6,1.6-1.1,3.1-1.7,4.6c-0.5,1.5-1.2,3-1.8,4.4l0,0.2c-0.3,0.7-0.7,1.6-1.1,2.8c-0.5,1.2-1,2.5-1.5,3.8c-0.5,1.3-1,2.6-1.5,3.8
		c-0.5,1.3-0.8,2.3-1,3c-0.1,0.3-0.2,0.5-0.3,0.8c0,0.1-0.1,0.2-0.2,0.3l-0.2,0.1v0.4h0.1c-0.7,2-1.3,4.1-2,6.2l-1,0.7
		c-0.3,0.2-0.7,0.4-1.2,0.6c-0.5,0.2-1,0.4-1.4,0.5c-1.5,0.5-2.9,1.1-4.4,1.8c-1.4,0.7-2.8,1.3-3.9,1.9c-1.2,0.5-2.2,1-3,1.3
		c-0.6,0.2-0.9,0.3-1,0.3c0-0.1,0-0.3,0.1-0.7c0.2-0.6,0.4-1.2,0.8-2c0.4-0.8,0.8-1.6,1.3-2.5c0.4-0.8,0.9-1.6,1.3-2.4
		c0.1-0.1,0.2-0.3,0.3-0.4c0.1,0,0.2-0.1,0.3-0.2l0.1-0.1c0.1-0.3,0.2-0.5,0.3-0.7c0-0.2,0.1-0.3,0.2-0.5c0.3-0.5,0.5-1,0.4-1.5
		c0.1-0.3,0.2-0.6,0.1-0.9c0-0.2-0.1-0.6-0.1-1c-0.1-0.4-0.3-0.7-0.5-0.9c-0.2-0.2-0.3-0.3-0.5-0.5l-0.2-0.3l-0.3,0.2
		c0,0-0.1,0-0.2-0.1c-0.4-0.2-0.8-0.2-1.1-0.1c-0.4,0.1-0.9,0.3-1.4,0.6l-0.1,0.1c-0.8,1.2-1.6,2.4-2.3,3.8c-0.7,1.4-1.4,2.7-2,4.1
		c0,0.1,0,0.1-0.1,0.2l-2.9,0.4c-0.9,0.2-1.9,0.6-2.9,1.1c-1,0.5-2,1.1-3,1.7c-1.1,0.6-2.2,1.2-3.4,1.8c-1,0.5-2,0.9-3.1,1.2
		c0-0.2,0.1-0.3,0.1-0.5c0.1-0.5,0.3-1.1,0.5-1.7c0.2-0.6,0.4-1.2,0.6-1.7c0.2-0.7,0.4-0.9,0.5-1.1c0.6-1.3,1.2-2.6,1.9-3.9
		c0.2-0.4,0.3-0.8,0.5-1.2c0.2-0.4,0.3-0.9,0.3-1.3c0-0.4-0.1-0.7-0.3-1l-0.7-0.7l-0.1,0c-0.1-0.2-0.2-0.3-0.4-0.4
		c-0.4-0.3-0.9-0.5-1.5-0.5l-1.6,0c-0.8,0.1-1.6,0.4-2.3,0.7c-0.7,0.3-1.4,0.7-2,1c-0.9,0.5-1.9,1.2-3,2.1c-1,0.8-2,1.7-3.1,2.6
		c-1.1,0.9-2.1,1.8-3,2.7c-0.5,0.5-1,0.9-1.5,1.3c0,0,0,0,0,0c0.1-0.4,0.2-0.8,0.3-1.1c0.3-0.7,0.5-1.4,0.7-2
		c0.1-0.6,0.3-1.1,0.6-1.7c0.1-0.2,0.1-0.5,0.2-0.7c0.1-0.3,0.2-0.4,0.2-0.4l0.1-0.1v-0.2c0-0.2,0-0.3,0.1-0.4
		c0.2-0.2,0.4-0.5,0.4-1h0.1l0.1-0.3c0.5-1.3,1-2.5,1.6-3.7c0.6-1.2,1.1-2.4,1.6-3.8c0.6-1,1.2-2.1,1.6-3.2c0.4-1,0.8-2.1,1.2-3.1
		c0.1,0,0.1-0.1,0.1-0.1c0,0,0.1-0.1,0.1-0.1h0.1l0.1-0.4c0.1-0.5,0.3-1.1,0.6-1.7c0.3-0.6,0.5-1.2,0.6-1.6c0.3-0.6,0.7-1.3,1-2
		c0.3-0.7,0.7-1.3,1.1-2c0.1-0.3,0.2-0.5,0.4-0.8c0.2-0.3,0.3-0.6,0.5-0.9c0.1-0.3,0.2-0.6,0.3-0.9c0-0.2,0.1-0.5,0.2-0.7
		c0.1-0.1,0.2-0.3,0.3-0.4c0.1-0.2,0.2-0.3,0.2-0.4l0.1-0.3l-0.2-0.2c-0.2-0.2-0.4-0.5-0.4-0.9c-0.1-0.8-0.6-1.1-1.1-1.2
		c-1-0.2-1.8-0.1-2.4,0.2c-0.2,0.1-0.5,0.4-0.9,0.8l-0.8,0.8c-0.2,0.2-0.4,0.5-0.5,0.8c0,0.1,0,0.1-0.1,0.1l-0.2,0.1l-0.1,0.2
		c-0.9,2.2-1.9,4.2-3,6c-1.1,1.8-2,3.9-2.8,6.2l-1.1,1.9c-0.1,0.4-0.2,0.7-0.3,1c-0.1,0.3-0.2,0.5-0.3,0.8c-0.2,0.3-0.4,0.6-0.6,0.9
		c-0.2,0.3-0.3,0.7-0.4,1.2c-0.3,0.4-0.5,0.8-0.7,1.4c-0.2,0.5-0.4,0.9-0.7,1.2l-0.1,0.2c-0.3,1-0.7,2-1.1,2.9c-0.5,0.9-1,1.9-1.5,3
		c-0.1,0.4-0.2,0.8-0.4,1.2c-0.1,0.3-0.3,0.7-0.4,1c-0.3,0.9-0.6,1.6-0.9,2.3c-0.2,0.5-0.4,0.9-0.6,1.4c-0.3,0.1-0.6,0.3-0.9,0.4
		c-1.9,0.9-4.3,2.2-7,3.6c-2.7,1.5-5.8,3.2-9.1,5.1l-17.2,10.1h-0.3l-0.1,0.2c-0.2,0.3-0.6,0.6-1,0.7c-0.6,0.2-1,0.4-1.4,0.7
		c-0.4,0.2-0.9,0.4-1.3,0.6c-0.5,0.2-0.9,0.4-1.2,0.7c-1.5,0.7-3.1,1.5-4.6,2.3c-1.5,0.8-3.1,1.5-4.7,2.1c-0.7,0.2-1.4,0.4-2.1,0.5
		c-0.8,0.1-1.6,0.3-2.2,0.6c-0.8,0.2-1.8,0.4-3,0.5c-1.1,0.1-2,0-2.6-0.5c-0.7-0.5-1.4-1.3-2-2.4c-0.6-1.1-0.9-2.2-0.9-3.3
		c-0.1-1.5-0.1-2.9,0.1-4.1c0.2-1.2,0.4-2.5,0.7-3.7c0.1-0.3,0.2-0.7,0.2-0.9c0-0.1,0.1-0.3,0.2-0.4l0.1-0.1l0-0.1
		c0.1-0.9,0.3-1.8,0.7-2.5c0.4-0.8,0.7-1.6,0.8-2.5c0.5-0.7,0.8-1.5,1-2.1c0.2-0.6,0.5-1.2,0.9-1.8l0.1-0.3l-0.1-0.2
		c0.1-0.1,0.3-0.3,0.3-0.6c0.1-0.1,0.1-0.1,0.1-0.2l1.7-0.8h-1.2c0.1-0.2,0.2-0.3,0.2-0.5c0.1-0.4,0.3-0.7,0.7-1.1l0.1-0.1
		c0.8-1.5,1.6-3.1,2.5-4.6c0.8-1.5,1.8-2.9,2.7-4.3c0.2-0.2,0.4-0.4,0.5-0.6c0.1-0.2,0.2-0.4,0.3-0.6c0.3-0.5,0.8-1.2,1.5-2.2
		c0.7-1,1.5-2,2.4-3.1c0.9-1.1,1.7-2.1,2.5-3.1c0.8-1,1.3-1.6,1.7-2c0.1-0.1,0.2-0.3,0.2-0.5l0.3-0.1l0.1-0.1
		c0.1-0.2,0.2-0.4,0.4-0.6c0.2-0.2,0.3-0.4,0.5-0.5l0.1-0.1c0.4-0.5,0.9-1,1.4-1.4l1.6-1.4l0.1-0.1c0.1-0.1,0.1-0.3,0.2-0.5
		c0,0,0.1-0.1,0.2-0.3c0.3-0.3,0.6-0.6,1-0.8c0.4-0.3,0.7-0.7,1-1c0.3-0.3,0.5-0.5,0.9-0.7c0.4-0.2,0.7-0.5,1-0.8
		c1.1-0.9,2.2-1.8,3.2-2.6c0.1-0.1,0.1-0.1,0.2-0.1c0.2,0,0.4-0.1,0.6-0.3c0.4-0.2,0.7-0.4,1-0.7c0.3-0.3,0.5-0.4,0.8-0.5l0.1-0.1
		c0.3-0.2,0.5-0.4,0.8-0.5c0.3-0.1,0.6-0.4,0.8-0.7c0.7-0.3,1.4-0.6,2-0.9c0.6-0.3,1.3-0.7,1.9-1c0.6-0.3,1.3-0.6,2-0.9
		c0.7-0.3,1.4-0.5,2.2-0.7c0.7-0.2,1.3-0.1,1.7,0.2c0.4,0.2,0.6,0.6,0.6,1.1c0.1,0.6,0,1.2-0.2,1.9c-0.2,0.7-0.4,1.5-0.7,2.2
		c-0.1,0.3-0.2,0.6-0.2,0.9c0,0.2-0.1,0.4-0.2,0.6c-0.2,0.4-0.5,0.9-0.9,1.4c-0.3,0.4-0.6,1.2-0.2,2.2c0.4,1.1,1.3,1.9,2.6,2.4
		l0.1,0.1l0.2-0.1c0.1,0,0.2,0,0.2,0c0.3,0.1,0.5,0.1,0.9,0l0.1,0c0.2-0.1,0.3-0.2,0.4-0.4c0,0,0.1,0,0.2,0l1,0l-0.4-0.4
		c0.1,0,0.1-0.1,0.2-0.2l0.1-0.1c0.2-0.4,0.6-1.1,1-2.1c0.1-0.3,0.2-0.6,0.4-0.9c0.2-0.3,0.3-0.7,0.5-1c0.1-0.3,0.3-0.7,0.4-1.3
		c0.2-0.6,0.3-1.1,0.3-1.3c0.1-0.5,0.1-1.2,0-1.9c-0.1-0.7-0.2-1.5-0.4-2.3c-0.2-0.8-0.5-1.5-0.8-2.1c-0.3-0.7-0.7-1.2-1.1-1.6
		c-1.5-1.8-3.4-2.8-5.5-3c-2.1-0.1-4.4,0.3-6.9,1.4c-2.4,1-5,2.6-7.7,4.6c-2.6,2-5.3,4.2-7.9,6.7c-2.6,2.5-5.1,5.1-7.5,7.8
		c-2.4,2.7-4.6,5.4-6.5,7.9c-1.9,2.5-3.5,4.9-4.8,7c-1.3,2.2-2.1,3.8-2.6,5.1l0,0.3c-0.5,0.7-1,1.5-1.4,2.4
		c-0.4,0.9-0.9,1.8-1.5,2.5l-0.1,0.1v0.2c0,0,0,0.1-0.2,0.7c-0.2,0.4-0.4,0.9-0.5,1.4c-0.2,0.5-0.3,0.9-0.5,1.3
		c-0.2,0.5-0.3,0.6-0.3,0.6h0l-0.1,0.1v0.2c0,0.2-0.1,0.3-0.1,0.3c-0.1,0.1-0.4,0.4-0.3,0.8c-0.2,0.2-0.3,0.5-0.2,0.7
		c0,0.1,0,0.2-0.1,0.2l-0.8,0.7h0.6c-1.6,5.9-2.1,10.8-1.4,14.7c0.7,4,2.4,6.9,5.2,8.6c1.7,1,3.9,1.6,6.4,1.6c1.4,0,3-0.2,4.7-0.5
		c4.6-0.9,9.9-3.3,15.9-7.1c0.8-0.2,1.4-0.6,2-1.1c0.5-0.2,0.9-0.4,1.3-0.7c0.4-0.3,0.8-0.5,1.2-0.7c0.2-0.1,0.5-0.2,0.7-0.3
		c0.3-0.1,0.5-0.3,0.7-0.5c0.2-0.1,0.5-0.2,1-0.5l1.6-1c0.6-0.4,1.2-0.8,1.7-1.2c0.4-0.3,0.8-0.6,1.1-0.7c0.1,0,0.1,0,0.2,0h0.3
		l0.1-0.3c0.1-0.3,0.3-0.4,0.6-0.4c0.5-0.1,0.9-0.3,1.3-0.7c0.2-0.1,0.5-0.2,0.8-0.4c0.3-0.2,0.6-0.4,0.7-0.6c0.5-0.2,1.1-0.6,2-1.1
		c0.9-0.5,1.8-1.2,2.8-1.8c1-0.7,1.9-1.3,2.9-1.9c0.9-0.6,1.7-1.1,2.3-1.5l1.5-0.8h-0.2c0.5-0.3,0.8-0.6,1-0.8
		c2.1-1.4,3.9-2.7,5.5-3.7c0,0.1-0.1,0.3-0.1,0.4c-0.5,1.3-0.8,3-0.8,4.8c-0.2,0.4-0.2,0.9,0,1.3c0.2,0.4,0.4,0.7,0.7,0.9
		c0.3,0.2,0.6,0.3,0.9,0.3c0.1,0,0.1,0,0.2,0c0.3,0,0.6-0.2,0.7-0.4c0.1,0,0.1,0,0.2,0c0.1,0,0.3-0.1,0.4-0.3l0-0.1v-0.1
		c0.1-0.1,0.2-0.1,0.4-0.2c0.2-0.1,0.4-0.2,0.6-0.4c0.1-0.1,0.2-0.2,0.3-0.5c0.4-0.1,0.6-0.1,0.8-0.2c0.1-0.1,0.4-0.3,0.8-0.9
		c1.1-1,2.2-1.9,3.2-2.8c1-0.9,2.1-1.8,3.2-2.8c0.5-0.4,1.2-0.9,2.1-1.5c0.8-0.6,1.7-1.3,2.6-2c0.9-0.7,1.8-1.3,2.7-1.9
		c0.8-0.6,1.5-1,2-1.3c0,0,0,0,0,0c-0.1,0.2-0.3,0.4-0.5,0.8l-0.1,0.2l0.1,0.2c0,0.1,0.1,0.3-0.1,0.6c-0.2,0.4-0.4,0.7-0.5,1.1
		c-0.3,0.6-0.5,1.2-0.7,1.8c-0.2,0.5-0.4,1.1-0.5,1.8c0,0.1,0,0.2-0.1,0.3c-0.1,0.2-0.2,0.4-0.2,0.6c0,0.2,0.1,0.5,0.2,0.7
		c0.1,0.1,0.1,0.3,0.2,0.5l0,0.1c0,0.1,0,0.2,0,0.3c0.1,0.3,0.2,0.6,0.3,0.9c0,0.1,0.1,0.2,0.1,0.2h-2.5l3.4,0.9
		c0.2,0.1,0.3,0.1,0.3,0.1c0.1,0.2,0.4,0.3,0.6,0.4c0.7,0.4,1.6,0.5,2.6,0.4c0.8-0.1,1.6-0.3,2.2-0.6c0.3,0.1,0.6,0,0.7-0.1l0.2-0.1
		c2-1.2,3.9-2.4,5.5-3.6c1.5-1.1,3.4-2.1,5.5-3c-0.1,0.2-0.2,0.4-0.3,0.6c-0.2,0.4-0.4,0.9-0.6,1.4c-0.3,0.9-0.5,1.7-0.7,2.4
		c-0.2,0.8-0.2,1.5,0,2.3l0.1,0.2c0.5,0.7,1.2,1.2,1.9,1.4c0.7,0.2,1.5,0.3,2.5,0.3c0.1,0,0.2,0,0.2,0c0.1,0,0.1,0,0.2,0
		c0.2,0,0.3-0.1,0.4-0.2c0.5,0.1,1.3-0.2,2.4-0.8c1.1-0.7,2.3-1.4,3.6-2.3c1.3-0.9,2.5-1.7,3.7-2.5c1.1-0.8,2-1.3,2.7-1.5
		c0.7-0.3,1.4-0.7,2.1-1.1c0.7-0.4,1.3-0.8,1.9-1.3c-0.3,1.2-0.5,2.4-0.7,3.6c-0.2,0.7-0.4,1.5-0.6,2.5c-0.2,0.9-0.3,1.8-0.4,2.6
		l0,0.1l0,0.1c0.1,0.4,0.3,0.8,0.5,1c0.1,0.1,0.3,0.3,0.4,0.5l0.1,0.3l0.3-0.1c0.1,0,0.2,0,0.3,0.2c0.2,0.5,0.7,0.8,1.3,0.8h0.1
		l0.1,0c0.3-0.1,0.6-0.3,0.8-0.6c0,0,0-0.1,0.2-0.1h0.5l0-0.5c-0.1-1,0.1-1.9,0.3-2.8c0.1-0.3,0.2-0.7,0.2-1.2
		c0.2-1.1,0.5-2.1,0.9-3.1c0.4-1.1,0.7-2.1,0.8-3.1c1.3-4,2.7-7.9,4.2-11.6C279.5,141.3,281,137.6,282.5,134z"/>
	<path id="XMLID_1358_" class="st0" d="M310.4,149.3c-0.1,0-0.3,0.1-0.4,0.2l-0.1,0c-0.5,0.1-0.9,0.3-1.2,0.4
		c-0.3,0.2-0.6,0.4-1,0.7c-0.9,0.5-1.7,0.9-2.7,1.4c-1,0.5-1.9,1-2.8,1.4c-1.2,0.6-2.1,1.2-2.9,1.6c-0.7,0.4-1.5,0.8-2.2,1.1
		c-0.7,0.3-1.4,0.7-2.2,1.1c-0.8,0.4-1.8,0.9-3,1.4c-0.5,0.2-1.1,0.5-1.8,0.7c-0.7,0.2-1.3,0.4-2,0.6c-0.8,0.2-1.7,0.5-2.6,0.9
		c-0.8,0.3-1.7,0.4-2.7,0.3c-0.3-0.3-0.5-0.7-0.5-1.1c0-0.5,0.1-1.1,0.2-1.7c0.2-0.6,0.5-1.1,0.8-1.6c0.3-0.4,0.6-0.8,0.8-1.1
		c0.9,0.1,1.9,0.1,2.8-0.1c1-0.2,1.9-0.5,2.5-1c2.3-1.6,4.7-3.4,7-5.4l0.1-0.1c0.1-0.2,0.3-0.4,0.5-0.6c0.2-0.3,0.5-0.5,0.8-0.8
		l0.1-0.1c0.1-0.2,0.4-0.5,0.7-0.8c0.4-0.4,0.7-0.7,0.8-1l0-0.1c0-0.8-0.4-1.6-1.1-2.4c-0.7-0.8-2.2-1.2-4.4-1.2
		c-0.4,0-0.7,0.1-0.9,0.3c-0.1,0.1-0.3,0.2-0.5,0.3c-0.6,0.3-1.2,0.6-1.9,0.9c-0.7,0.3-1.4,0.7-2,1.1c-1.4,0.8-2.8,1.8-4.1,3.2
		c-1.3,1.3-2.6,2.7-3.8,4.2l-0.1,0.1l0,0.1c-0.1,0.2-0.2,0.5-0.3,0.8c-0.1,0.3-0.3,0.5-0.6,0.7l-0.1,0.1c-0.4,0.7-0.7,1.4-1,2.2
		c-0.3,0.8-0.6,1.6-0.8,2.4c-0.2,0.8-0.2,1.6-0.2,2.4c0.1,0.8,0.3,1.6,0.8,2.1c0.6,0.8,1.3,1.4,2.1,1.8c0.8,0.3,1.7,0.5,2.6,0.6
		c0.1,0,0.3,0,0.4,0c0.8,0,1.5-0.1,2.3-0.2c0.9-0.2,1.7-0.4,2.4-0.5c0.5-0.2,1-0.3,1.6-0.5c0.6-0.2,1.1-0.4,1.6-0.7l6.2-2.9
		c0.4-0.2,1-0.5,1.9-1c0.8-0.5,1.7-1,2.6-1.5l2.8-1.6c0.9-0.6,1.7-1.1,2.4-1.5c0.4-0.3,0.7-0.5,1-0.6c0.3-0.2,0.5-0.3,0.7-0.5
		c0.2-0.1,0.3-0.2,0.4-0.4c0.2-0.3,0.5-0.6,0.8-0.8c0.4-0.4,0.7-0.7,1-1c0.3-0.4,0.5-0.7,0.5-1C311.6,149.6,311.2,149.3,310.4,149.3
		z M286.2,153c1.1-1.3,2.3-2.6,3.6-3.7c1.1-1,2.3-1.8,3.7-2.5c-0.7,0.8-1.5,1.5-2.2,2.2c-1.2,1.1-2.4,2.1-3.5,3
		c-0.5,0.3-0.9,0.6-1.4,0.9C286.3,153,286.2,153,286.2,153z"/>
</g>
</svg>
