<?xml version="1.0" encoding="utf-8"?>
<!-- Generator: Adobe Illustrator 22.1.0, SVG Export Plug-In . SVG Version: 6.00 Build 0)  -->
<svg version="1.1" id="Layer_1" xmlns="http://www.w3.org/2000/svg" xmlns:xlink="http://www.w3.org/1999/xlink" x="0px" y="0px"
	 viewBox="0 0 44 44" style="enable-background:new 0 0 44 44;" xml:space="preserve">
<style type="text/css">
	.st0{fill:#FFFFFF;}
</style>
<path class="st0" d="M38,18.8l-12.8-0.1l0.1-12.9c0-1.4-1.1-2.5-2.5-2.5c0,0,0,0,0,0c-1.4,0-2.5,1.1-2.5,2.5l-0.1,12.9l-14-0.1
	c0,0,0,0,0,0c-1.4,0-2.5,1.1-2.5,2.5c0,1.4,1.1,2.5,2.5,2.5l14,0.1l-0.1,13.8c0,1.4,1.1,2.5,2.5,2.5c0,0,0,0,0,0
	c1.4,0,2.5-1.1,2.5-2.5l0.1-13.8L38,23.8c0,0,0,0,0,0c1.4,0,2.5-1.1,2.5-2.5C40.5,19.9,39.4,18.8,38,18.8z"/>
</svg>
